<?xml version="1.0" encoding="utf-8"?>
<!-- Generator: Adobe Illustrator 25.2.1, SVG Export Plug-In . SVG Version: 6.00 Build 0)  -->
<svg version="1.1" id="allChange" xmlns="http://www.w3.org/2000/svg" xmlns:xlink="http://www.w3.org/1999/xlink" x="0px" y="0px"
	 viewBox="0 0 3000 3000" style="enable-background:new 0 0 3000 3000;" xml:space="preserve">
<g>
	<g id="change_6_">
		<path d="M2789.8,30l-236.2,2646.3l-1055.2,292.5L446.1,2676.7L210.2,30H2789.8 M2822.6,0H177.4l240.7,2700.1L1498.4,3000
			l1083.2-300.3L2822.6,0L2822.6,0z"/>
	</g>
	<polygon id="change_5_" points="729.2,1222.2 758.9,1553.4 1500,1553.4 1500,1222.2 	"/>
	<polygon id="change_4_" points="1500,551.9 1498.9,551.9 669.6,551.9 699.8,883.1 1500,883.1 	"/>
	<polygon id="change_3_" points="1500,2426.8 1500,2082.3 1498.6,2082.6 1129.7,1983 1106.2,1718.9 927,1718.9 773.7,1718.9 
		820.1,2238.9 1498.5,2427.3 	"/>
	<polygon id="change_2_" points="1868.2,1982.8 1906.6,1553.4 1500,1553.4 1500,2082.2 	"/>
	<polygon id="change_1_" points="1965.5,883.1 1500,883.1 1500,1222.2 1935.4,1222.2 	"/>
	<polygon id="change" points="1500,220.8 1500,551.9 2328.4,551.9 2268.7,1222.2 2260.5,1311.1 2182.8,2183 2177.7,2238.9 
		1500,2426.8 1500,2770.5 2375.4,2527.8 2581.2,220.8 	"/>
</g>
</svg>
