<?xml version="1.0" encoding="utf-8"?>
<!-- Generator: Adobe Illustrator 25.2.1, SVG Export Plug-In . SVG Version: 6.00 Build 0)  -->
<svg version="1.1" id="allChange" xmlns="http://www.w3.org/2000/svg" xmlns:xlink="http://www.w3.org/1999/xlink" x="0px" y="0px"
	 viewBox="0 0 3000 3000" enable-background="new 0 0 3000 3000" xml:space="preserve">
<g>
	<polygon id="change_6_" fill="none" stroke="#000000" stroke-width="10" stroke-miterlimit="10" points="2815.1,8.5 2575.5,2692.9 
		1498.4,2991.5 424.2,2693.3 184.9,8.5 	"/>
	<polygon id="change_5_" points="733.6,1223.8 763.1,1553.1 1500,1553.1 1500,1223.8 	"/>
	<polygon id="change_4_" points="1500,557.3 1498.9,557.3 674.3,557.3 704.3,886.6 1500,886.6 	"/>
	<polygon id="change_3_" points="1500,2421.5 1500,2079 1498.6,2079.3 1131.8,1980.3 1108.4,1717.7 930.2,1717.7 777.8,1717.7 
		824,2234.7 1498.5,2422 	"/>
	<polygon id="change_2_" points="1866.1,1980.1 1904.3,1553.1 1500,1553.1 1500,2078.9 	"/>
	<polygon id="change_1_" points="1962.9,886.6 1500,886.6 1500,1223.8 1932.9,1223.8 	"/>
	<polygon id="change" points="1500,228 1500,557.3 2323.7,557.3 2264.3,1223.8 2256.2,1312.2 2178.9,2179.1 2173.9,2234.7 
		1500,2421.5 1500,2763.3 2370.4,2522 2575.1,228 	"/>
</g>
</svg>
