<?xml version="1.0" encoding="utf-8"?>
<!-- Generator: Adobe Illustrator 25.2.1, SVG Export Plug-In . SVG Version: 6.00 Build 0)  -->
<svg version="1.1" id="Capa_1" xmlns="http://www.w3.org/2000/svg" xmlns:xlink="http://www.w3.org/1999/xlink" x="0px" y="0px"
	 viewBox="0 0 3000 3000" style="enable-background:new 0 0 3000 3000;" xml:space="preserve">
<g>
	<path d="M1496.5,2998.6c-58.8,3.9-101-19.3-143.5-43.2c-291.5-164.4-581.9-330.9-876-490.5c-72.9-39.6-57.4-60.5-10.5-107.5
		c558.2-559.4,1114.5-1120.5,1671.6-1681c30.8-31,59.2-74.1,111.6-57.6c52.5,16.5,50.3,66.3,57.5,110.6
		c86.6,536.2,174.1,1072.2,261.4,1608.3c8,49,12.1,87.7-46.6,119.5c-307.3,166.4-611.2,339.1-916.9,508.6
		C1569.7,2985.4,1532.6,3005.6,1496.5,2998.6z"/>
	<path d="M476.9,2164.9c311.1-557.2,622-1115.3,934.4-1672.5c54.4-97.1,105.7-96.8,158-1.2c62.3,113.9,118.7,231.1,181.8,344.5
		c21.6,38.8,22.4,64-10.2,96.6c-407.9,408-814.7,817.2-1221.7,1226.2C508,2169.9,497,2177.7,476.9,2164.9z"/>
	<path d="M490.8,1871.8c24.7-166.2,48.6-332.6,74.4-498.7c64.4-415.3,129.5-830.4,194.9-1245.6c7.8-49.7,0.4-113.3,67.9-125.9
		c69.8-13,82,53.1,105.5,96c84,153,165.1,307.6,247.3,461.6c21.1,39.6,37.3,73,9,122.8c-220.1,387.7-436.1,777.7-653.3,1167.1
		C529.3,1862.1,523.1,1876.3,490.8,1871.8z"/>
</g>
</svg>
