<?xml version="1.0" encoding="utf-8"?>
<!-- Generator: Adobe Illustrator 25.2.1, SVG Export Plug-In . SVG Version: 6.00 Build 0)  -->
<svg version="1.1" id="Capa_1" xmlns="http://www.w3.org/2000/svg" xmlns:xlink="http://www.w3.org/1999/xlink" x="0px" y="0px"
	 viewBox="0 0 3000 3000" enable-background="new 0 0 3000 3000" xml:space="preserve">
<path fill="#020203" d="M896.2,2545.4c-114.4-90-236.3-176.1-319.5-297.4c-175.3-214.1-310.4-461.8-402.6-722.2
	c-55.8-169.3-75-350.9-146.8-513.8c-75.2-118.1,12.9-247.5,142.5-285c57.7-11.1,159-65.6,36.6-26.6c-109.7,80.4-120.3-73.1-7.8-82.9
	c76.9-10.3,105-73.1,78.8-129.6C194.8,434,477.2,375,335.1,294.6c-148-159.4,207-190.1,119.5-8.8
	c-20.8,139.3,248.1-25.7,185.6,135.4c63.5,77.4,237.6,17.6,233.2,126.1c92.4,6.4,124.1,84.1,211,90c90,40.6,252.9,72.6,283.4,173.9
	c-89.1,70.6-295.6-145.8-305.7,49.7c27,288.8,20.1,586.2,125.6,861.2c50,166.4,171.1,297.5,280.3,427.2
	c104.7,127,246.6,216.4,391,291.6c126.8,59.8,263.5,99.4,401.6,124.3c56-42.8,155-202.1,242.3-135c4.2,75.6-173.5,157.9-8.4,149.5
	c97-29.3,164.3,75,244.1-19.1c73.6,87.2,305.7-55.6,253.4,122.5c-70.8,45.7-174,18.1-244.9,80.9c-116.9-58.4-210,52.2-339.4,38.3
	c-143.7,25.8-289.9,36.1-435.6,36.3c-239.1-18.8-483.2-26.8-710.5-110.1c-128.2-37.2-253.2-110.2-365.7-183.2L896.2,2545.4z
	 M1098.1,2632.9c125.1,54,247.5,111,384.4,128.3c217.5,30.2,442.1,76.9,660.4,34.3c-98.8-44.6-200.9,17.3-299.4-31.9
	c-118.1,25.3-243.8-6.6-365.7-22.2c-136.4-60.8-283.7-102.6-411.4-181.5c-159.7-58.3,82.5,74.8,125.6,85.6
	c99.8,56.6-109.7-28.1-139.3-52.5c-83.6-46.9-94.2-37.1-8.3,10.5l52.5,29.4H1098.1z M859.9,2464.7c121.2,45-0.6-85.3-56-77.8
	c-24.6-42.7-94-69.7-45-92.5c-88.1,30.6-92.3-116.3-133.6-95.3c-93.2-29.4-36.3-133.7-147.2-197.8
	c-10.1-67.5-110.3-125.9-142.1-227.7c-14.1-52.1-113.2-201.6-52.3-62.4c51.8,134.1,142.9,248.7,218.8,363.3
	c58.9,109.1,128.5,223.2,235.7,291.3c36.2,34.7,71.1,87.9,122.1,98.7L859.9,2464.7z M510.8,2081.2
	C515,2062.9,532.9,2120.7,510.8,2081.2z M1005.2,2518.4C1032,2506.4,966.6,2503.2,1005.2,2518.4z M1070.8,2542.4
	C1064,2509.3,1040.8,2560.9,1070.8,2542.4z M1153.3,2576.7C1192.5,2539.4,1092.9,2553.3,1153.3,2576.7z M1294.5,2655.5
	C1318.3,2620.3,1218.3,2642.3,1294.5,2655.5z M1023.6,2466.5C1084.5,2427.2,944.8,2466,1023.6,2466.5z M1085.4,2497.5
	C1083.6,2476.7,1063.4,2506.8,1085.4,2497.5z M1394.2,2690.2c49.7,31.3,289.9,68.6,139.5,12.8
	C1508.4,2708.3,1254.8,2631.3,1394.2,2690.2z M904,2308.4C899.3,2287.6,826.9,2285.4,904,2308.4z M1047.8,2392.3
	C1085.3,2366,970.1,2372.1,1047.8,2392.3z M1169.6,2467.3C1223.4,2447,1082.6,2446.9,1169.6,2467.3z M845.3,2244.6
	c58.1,44.6,235,5.6,89.1-26.6c-66.3-35.3-215.7-59.5-113.8,21.3L845.3,2244.6L845.3,2244.6z M1250.4,2491.8
	C1274.7,2450.6,1148.5,2468.2,1250.4,2491.8z M1127.3,2394.1c142.5,40.3-119.7-90-35.2-15l18.8,8.4l16.4,6.4V2394.1z M1374,2536.6
	C1509.1,2537.9,1252.2,2517.8,1374,2536.6z M793.4,2166.5C788.1,2141.4,760.1,2168.6,793.4,2166.5z M1602.3,2664.6
	C1605.8,2619.2,1558.2,2698.3,1602.3,2664.6z M1023.7,2307.3C1015.6,2283.4,981.6,2306.4,1023.7,2307.3z M806.2,2150.7
	C883.7,2146.1,700.3,2116.6,806.2,2150.7z M548.7,1984.4C539,1947.3,464.5,1917.7,548.7,1984.4z M1224.9,2413.6
	C1210.8,2397.3,1218.3,2417,1224.9,2413.6z M1645.7,2671.9C1644.4,2647.1,1622.8,2681.2,1645.7,2671.9z M1187.6,2375.1
	C1195.1,2343.2,1121.5,2365.5,1187.6,2375.1z M874.1,2176.3C931.8,2170.2,781.8,2137.4,874.1,2176.3z M1404.4,2505.9
	C1494.2,2470.3,1316.9,2488.6,1404.4,2505.9z M1128.6,2318.7c103.4,13.3-123.1-70.3-22.8-7.5L1128.6,2318.7z M1488.1,2539.8
	c96.6-57.7,64.7,135.3,163.9,16.3c97.8-71.4-84.4,88.3,36,12.8c87.2-58.3,215.9,27.7,297.2,55.6c58.5-2.8,115.3,50.6,175.3,18.1
	c115.3-31.1-225.8-46.1-136.3-101.3c-105.6,30.8-183.6-36.6-235.6-104.3c-118.5-27.4-255.4-87.9-314.6-192.8
	c-24.1-39.4,34.7,5.6-20.8-58.8c-71.3-63.5-106.9-135.6-154.9-212.8c-57.2-30.5-64-120.4-69.8-3c0.5-74.1-69.1-124-86.3-103.3
	c-0.3-71.3,74.5-35.6,22.1-88.3c-11.3-74.1-48.4-151-59.4-234.6c-17.3-40.3-2.4-126.6-59.1-35.3c-20.6,96.3-6.8-118.3,25.3-47.6
	c42.2-72.2-15.2-63.8-17.4-53.7c27.5-60.9,17.4-147.4-7.2-114.4c14.6-64.7,23.2-237.7-21.8-207c27.2-67.5,51.8-309.1-66.8-217.1
	c-48,0.7-131.1,17.4-170.4,36.9c123.1,67.9-12.4,24.6-62.6,13.7c-6.6,62.8-56.3,35.6-118.1,36.3c99.2,12.2-48.3,101.3-105,66.8
	c-73.9,35.3,63.8,123.4,1.4,150.7c7.7,41-113.2-14.8-103.7,80.1c-71.6-30.2-9.8,112.5,26.1,64.2c121.9,33,85.8,108.2,88.9,179.7
	c-19.9,41.6-98.1-97.9-17.4-91.4c-63.8-103.4-70.3-37.5-123.3,10.7c-12.2,3.5,135,68.4,42.6,100.3c81.3,12.6,83.6,83.7,100.1,128.6
	c48.8,50.9,38.7-56.3,97.2,5c-37-54.4-196-153.5-68-121.9c-0.7-54.8-23.2-99,16.1-98c38.9-70.3-40.7,173.5,46.9,84
	c24.2-10.6,30.3-70.3,73.8,5.6c63.2,62.3,22.9,107.3-66.4,50.3c15.9,54.2,119.4,73.5,99.9,158.2c20.6,74.5,49.4,47.1,74.5,42.8
	c18.8,72.4,30.9,19.1,31.9-15.3c90.2,19.3,69,72.7,97.3,109.9c62.2,28.1-89.1-190.1,17.8-65.6c112.2,101.3,42.2,143.7-58.6,127.5
	c63.8-5.2,84.4,86.3,164.1,83c72.8,34.7,121.9,167.6-3.4,112.1c-43.4-39.2-197.5-87.6-71.6-13.1c116.1,53.8,208.3,85.9,320.3,153.5
	c80.1,56.3,114.7,122.6,145,135.7c-67.3,32.2-202.9-25.7-103.1-43.4c-62.8-11.4-133.5-43.1-73.3,35.1
	c51.2,42.8,181.2,38.3,204.6,43.1c-19.7,43.5-53.7,46.9,0.8,50.3c-60.8,32.4,19.5,37.5,25.1,56L1488.1,2539.8z M1363.8,2188.7
	c-37-38.7-46.6-111.1-6.6-48.1C1377.9,2148.9,1422.9,2259,1363.8,2188.7z M1768.9,2444.8C1791.9,2443.3,1769.5,2462.3,1768.9,2444.8
	z M1305.7,2092.7C1304.2,2034.2,1319,2137.7,1305.7,2092.7z M1265.4,2038.6C1218.8,1948.6,1324,2063.9,1265.4,2038.6z M777.6,1701.1
	C805,1693.8,791.1,1747.8,777.6,1701.1z M1165.8,1911.5C1182.7,1848.4,1184.5,1964.3,1165.8,1911.5z M891.5,1720.8
	C872.2,1686.1,931.9,1753.4,891.5,1720.8z M1126.9,1796.1c-44.1-98.7,31.3-53.9,9.8,16.1L1126.9,1796.1z M721.1,1525.5
	c-18.8-32.4-52.2-127.5-41.7-156.6c9.4,47.3,100.5,203.5,44.6,65.6c-61.7-116.3,73.8,37.7,87.8,66.8c6.6,28.8-38.1-7.9-7.9,59.8
	c-55.1-77.1-32.5,42.6-82.7-34.7L721.1,1525.5z M595.7,1439.1C600.9,1363.7,624.4,1490.7,595.7,1439.1z M652.2,1458.6
	C679.1,1401.8,697.7,1537.8,652.2,1458.6z M515.3,1355.5c-46.7-46.4-80.4-89.1,2.3-28.8c31.9,1.2-70.8-97.2,7.7-31.3
	C607.7,1310.4,565.9,1430.7,515.3,1355.5L515.3,1355.5z M586.5,1353.6C613.7,1326.7,601,1380,586.5,1353.6z M630.4,1367.6
	C589.2,1290.6,680.3,1400,630.4,1367.6z M543.2,1284.4c-135.8-121,170.6,63.1,22.1,22.5L543.2,1284.4z M932.1,1510.4
	c-58.8-35.2-15.7-247.9,4.4-102.5c57.2-18.5-3.2,75.2,39.4,74.3C969.4,1541.2,950.1,1562.5,932.1,1510.4L932.1,1510.4z M1076,1595.4
	C1081.6,1531.3,1088.2,1639.3,1076,1595.4z M1051,1570.6C1057.6,1543.3,1051.6,1602.9,1051,1570.6z M570.8,1244.6
	c-87.2-120.3,253.4,121.7,55.9,30.5C606,1269.7,581.2,1267.8,570.8,1244.6z M847.9,1391.5C839.6,1290.2,866.2,1408.3,847.9,1391.5z
	 M1058.2,1526.5C1074.4,1468.8,1059.4,1564.6,1058.2,1526.5z M584.2,1198.7c51.9-11.1,215.7,90.9,65.2,29.1
	C632.8,1209.4,597.2,1217.7,584.2,1198.7z M1029.2,1420.5c5.6-103.6,30.9-61.9,0.2,15L1029.2,1420.5z M622.7,1162.7
	c21.2-30.9-56.1-140,11.1-39.1c28.1,23.1,84.1,38.6,35.6,48.4C745.8,1239.5,650.7,1190.3,622.7,1162.7L622.7,1162.7z M1007.2,1388.3
	C1021.7,1270.1,1020,1457.4,1007.2,1388.3z M578.7,1053.7C594.8,1046.8,587.1,1075.3,578.7,1053.7z M679,1113.5
	C704.8,1059.3,726.6,1173.8,679,1113.5z M961.9,1270.8C961.7,1250.2,967.2,1301.1,961.9,1270.8z M945.5,1234.6
	C906.3,1137.7,983,1285.9,945.5,1234.6z M921.4,1171C914.8,1131,943.9,1221.3,921.4,1171z M960.6,1107.3
	c-27-47.4,34-209.1,40.9-108.8c-28.4,78.2-8.2,121.9,11.5,16.9C1049.5,932.9,1005.1,1178.3,960.6,1107.3L960.6,1107.3z
	 M1000.9,866.7C1012.6,852.2,1003.5,884,1000.9,866.7z M933.5,2193.5C917.5,2179.4,935.5,2202.3,933.5,2193.5z M1072.2,2263.6
	c77.2,19.9,76.9-12,7-21.6c-37.5-34.9-155.8-71.9-49.9-4.3C1036.3,2256.5,1058.4,2255.1,1072.2,2263.6L1072.2,2263.6z M798.4,2081.7
	c42.5,31.9,160.1,89.8,60.6,12.2c33.6-39-64.2-59.8-31.9-85.9c-82.5-50.6-65.2-46.9-7.3-44.3c-99.2-44.3,14.3-41,9-63.8
	c-38.3-7.5-190-67.5-100.7,4.9c-90.8-46.2-21.6,17.3-49,10.6c-93.8-25.3,82.5,70.7-14.7,46.9c53.2,42.2,143.3,108.1,22.5,44.6
	c-15.9,22.9,86.4,57.7,112.5,75L798.4,2081.7z M943.5,2165.2C1119.8,2222,856.9,2095.8,943.5,2165.2z M1686.1,2615
	C1688.3,2580,1662,2645.1,1686.1,2615z M1762.4,2647.2c40.7-39.4,1.7,62.8,67.5-9.7c0.7-51.8-1.9-82.5-75.6-19.5
	C1734,2629.3,1725,2677.1,1762.4,2647.2L1762.4,2647.2z M550.7,1886C538.3,1836.8,463.2,1837,550.7,1886z M632.3,1939.4
	C602,1889.2,524.3,1893.9,632.3,1939.4z M1096,2219.1c45.3,40.3,208,29.5,54.9,5C1128.5,2190.6,1007.2,2198.7,1096,2219.1z
	 M1733.4,2612.9C1803.1,2554.4,1665.9,2639,1733.4,2612.9z M1878.4,2712.5C1878.9,2693.7,1848.4,2720.6,1878.4,2712.5z
	 M1878.7,2686.2C1955.8,2604.6,1803.9,2690.9,1878.7,2686.2z M350.3,1718.1c-65.6-93.8-40.9-136-104.3-212.6
	c-12-58.6-108.8-191.6-50.1-50.6c53.8,82.5,69.8,210,154.3,263.5V1718.1z M1854.2,2660.1C1996.2,2568.4,1796.1,2620.1,1854.2,2660.1
	z M1962.6,2702.5C2033.8,2641.6,1917.6,2689.8,1962.6,2702.5z M526.5,1782.4C546.9,1752.1,474,1778.4,526.5,1782.4z M1940,2673.6
	c68.8-44.3-15.9-37.5-12.5,4L1940,2673.6z M1005.9,2084.7C1003.6,2054.7,969.6,2087.3,1005.9,2084.7z M1063.6,2117.9
	C1045.2,2080.8,1035.5,2123.7,1063.6,2117.9z M2050.4,2703.5c88.1-63.8-53.4-12.2-18.5,12.2L2050.4,2703.5z M2016.7,2687.2
	C2088.6,2627,1940.7,2713.8,2016.7,2687.2z M2189.2,2802C2237.4,2769.8,2130.6,2791.7,2189.2,2802z M570.9,1760.3
	c64.7,14.4,258.3,159.2,144.1,10c-58.5-17.3-23.4-160.3-83.2-135c40,66.9,32.8,95.4-51.2,53.3c-105.7-51.6-59.4,25.5-38.7,46.9
	C513.8,1742,579.1,1759.9,570.9,1760.3L570.9,1760.3z M276.5,1527.8c11.5-47.8-106.6-263.5-55.8-108
	C239,1452.3,237.1,1514,276.5,1527.8z M817.1,1861.1C783.7,1833.3,815.5,1857.2,817.1,1861.1z M899,1880.2
	C899,1829.6,808.5,1859.6,899,1880.2z M1609.5,2328C1595.9,2293.4,1556,2327.3,1609.5,2328z M1643.6,2353
	C1638.5,2333.6,1624.9,2356.7,1643.6,2353z M1925.2,2530.4C1952.4,2510.4,1891.4,2527.8,1925.2,2530.4z M423.4,1565.5
	C500.8,1535.5,340.4,1544.1,423.4,1565.5z M1546.7,2273.2C1545.7,2223,1497.2,2285.7,1546.7,2273.2z M392.7,1494
	C442.4,1477.2,346.8,1483,392.7,1494z M537.1,1564C536.2,1547.5,521.8,1570.3,537.1,1564z M2298.7,2644.1
	c63.9-12.9,209.8,32.5,233.5-16.9c-77.8-1.9-268.8-54.9-277.8,12.6l16.9,2.8l27.5,1.7V2644.1z M583.1,1575.6
	C584.2,1524.8,543.5,1573.7,583.1,1575.6z M203.3,1312.1C186.1,1215.4,137.7,1297.5,203.3,1312.1z M293.8,1334.9
	C294.9,1303.8,210.9,1307,293.8,1334.9z M345.6,1360.2C330.6,1348.1,333.9,1375.5,345.6,1360.2z M671.2,1569
	C686.6,1555,634.9,1558.7,671.2,1569z M311.2,1302.8C302.3,1229.6,206.2,1291.8,311.2,1302.8z M125.5,1182.3
	C122.9,1148.5,107.4,1195,125.5,1182.3z M153.2,1161.5C148.7,1121.4,129.5,1166.5,153.2,1161.5z M305.7,1252.4
	c64.5-25.3-117.5-52.5-13.1-4.7L305.7,1252.4z M2347.7,2514.2C2388.9,2476.3,2295.2,2502.4,2347.7,2514.2z M2594.3,2642
	C2610.8,2593.2,2552.5,2648.5,2594.3,2642z M321.2,1172.9C328,1125.6,270,1182.3,321.2,1172.9z M104,1027.6
	c-11.4-67-9.8-184.2,101.6-144.7c-148.8,29.6,103.1,185.1,71.3,62.3c62.6,3.1,122.5-37,89.5,23.7C490,955.5,575.3,848.4,694.6,863.5
	c93.8-12.4,194.3-21.6,294.4-59.1c82.2-5.9,161.3-94.4,116.3-146.9c-112.1-9.4-229.5,4.5-353.5,29.3
	c-137.4,28.5-262.1,82.8-400.6,106c-135,18.2,27.2,50-11.5,57.2c-70.3,24.4,84.1,40.9-9.1,66.8c-57.6-11-117.5-30.8-92.8-91.4
	C108.3,842.1-5.5,895.7,96.8,1027.4l7.5,0.1L104,1027.6z M416.1,869.6c30.3-111.8,162.5,91.9,49.7,15
	C452.4,874.5,430.1,866.3,416.1,869.6z M422,815.4C465.8,782.9,445.2,833.7,422,815.4z M477.6,816.3c4-51.4,127.3,28.1,20.3,18.5
	L477.6,816.3z M553.5,785.8C581.4,753.2,561.6,814.6,553.5,785.8z M573,772.6c46.3-55.6,261.9-35.6,103.1-5.4
	C634,735.3,601.4,786,573,772.6z M854.3,729.2C847.4,577.3,994.2,783.1,854.3,729.2z M934.2,728.8c29.1-76.5,113.5-30.8,13.6-15.4
	C950,721.5,944.8,752.9,934.2,728.8z M289.8,1134.5C377,1081,197.2,1088.1,289.8,1134.5z M354.3,1153.2
	C384.9,1120.7,288.7,1140.1,354.3,1153.2z M164.3,1016.8C214,978.4,105.3,1002.3,164.3,1016.8z M2740,2628.1
	C2741.4,2583.6,2701.9,2648.1,2740,2628.1z M2478.4,2449.5C2485.9,2398.4,2444.6,2453.9,2478.4,2449.5z M2812.2,2645.4
	c69.7,0.3,211.2-21.6,59.5-21.6C2847.9,2627.6,2732.9,2626.7,2812.2,2645.4z M411.2,1120.2c56.4-3.8,88.1-62.2-11-58.9
	c-153.8-15.9,135.6,52.7-18.8,33c-20.8,13.8,29.4,29.6,30.7,25.8L411.2,1120.2z M460.9,1145.3C455,1109.1,443.5,1164.6,460.9,1145.3
	z M520,988.2C544.3,957.8,486.2,980,520,988.2z M332.4,674.7c100.7-34.2,238.3-72.7,286,16.9c-48.4-58.1-19.5-115.5,26.3-30.4
	c64.7,86.1,96.9-39.2,54.9-68.1c47.8,59.4,102.2,87.6,32.1,3.8c76.4-91.9-152.8,12-205,11c-25,11.3-258.8,59.6-194.1,66.9H332.4z
	 M391.5,561.7c57.4-43.3,198.6,25.8,108-43.1C490.6,510.8,301.2,570.8,391.5,561.7z M600.8,570.3c67.1,1.7-29.1-90.3,51-48.6
	c-13.1-42.9-93.2-50.9-132.4-68.2C497.3,492.8,564.4,570.8,600.8,570.3L600.8,570.3z M428.3,380.3
	C451.5,348.8,387.5,396.3,428.3,380.3z M513.4,400.8c108.3-14.3-27.6-46.6-21.8-1.1L513.4,400.8z M353.6,276.1
	c-76.2-99.6,143.5,16.7,65.9-87.5C354.3,136.8,291.8,247.1,353.6,276.1z M1331.9,803c35-61.9-144.4-83.4-23.4-21.9
	C1319.6,784.8,1317.1,807.3,1331.9,803z"/>
</svg>
