<?xml version="1.0" encoding="utf-8"?>
<!-- Generator: Adobe Illustrator 25.2.1, SVG Export Plug-In . SVG Version: 6.00 Build 0)  -->
<svg version="1.1" id="Capa_1" xmlns="http://www.w3.org/2000/svg" xmlns:xlink="http://www.w3.org/1999/xlink" x="0px" y="0px"
	 viewBox="0 0 3000 3000" style="enable-background:new 0 0 3000 3000;" xml:space="preserve">
<g>
	<g>
		<path d="M2790,30l-235.9,2646.2c-174.2,48.3-351,97.3-522.1,144.7c-175.1,48.5-356,98.6-534.1,148
			c-250.7-69.5-505.3-140-751.6-208.2c-100.1-27.7-200.2-55.4-300.3-83.1L327.5,1347.8L210,30H2790 M2822.7,0H177.3
			c80.2,900.3,160.4,1800.6,240.6,2700.9c360,99.7,719.9,199.3,1079.9,299.1c361.4-100.2,722.9-200.3,1084.3-300.5L2822.7,0
			L2822.7,0z"/>
	</g>
	<path d="M668.7,552H1500v331h-468.2l30.7,339.1H1500v330.3H759.1 M773.7,1718.7h332.5l23.4,264.7l370.4,99.2v345.6l-679.7-189.6"/>
	<g>
		<polygon points="1500,221.7 1500,552 2328.4,552 2297.7,883 1500,883 1500,1222.2 2267.9,1222.2 2176.7,2238.6 1500,2426.3 
			1500,2770.3 2375,2525.9 2581.4,221.7 		"/>
		<polygon points="1906.9,1553.2 1500,1553.2 1500,2082.2 1868.3,1983.4 		"/>
	</g>
</g>
</svg>
