<?xml version="1.0" encoding="utf-8"?>
<!-- Generator: Adobe Illustrator 25.2.1, SVG Export Plug-In . SVG Version: 6.00 Build 0)  -->
<svg version="1.1" id="Capa_1" xmlns="http://www.w3.org/2000/svg" xmlns:xlink="http://www.w3.org/1999/xlink" x="0px" y="0px"
	 viewBox="0 0 3000 3000" enable-background="new 0 0 3000 3000" xml:space="preserve">
<g>
	<path fill-rule="evenodd" clip-rule="evenodd" d="M1108.5,2315.4c0,0-113.9,66.3,81.2,88.7c236.4,27,357.2,23.1,617.6-26.2
		c0,0,68.6,42.9,164.3,80.1C1387.5,2708.2,649.8,2443.5,1108.5,2315.4z M1037.1,1988.8c0,0-127.8,94.6,67.5,114.8
		c252.5,26.1,451.9,28.2,797.1-38.2c0,0,47.7,48.4,122.7,74.8C1318.3,2346.7,532,2156.5,1037.1,1988.8z"/>
	<path fill-rule="evenodd" clip-rule="evenodd" d="M1638.6,1434.8c144,165.7-37.7,314.8-37.7,314.8s365.4-188.6,197.6-424.8
		c-156.7-220.2-276.9-329.6,373.7-706.9C2172.1,617.8,1150.9,872.8,1638.6,1434.8z"/>
	<path fill-rule="evenodd" clip-rule="evenodd" d="M2411,2556.9c0,0,84.3,69.5-92.9,123.3c-337,102.1-1402.9,132.9-1699,4.1
		c-106.4-46.3,93.2-110.5,156-124.1c65.5-14.2,102.8-11.6,102.8-11.6c-118.4-83.3-765,163.7-328.4,234.6
		C1740.1,2976.2,2719.8,2696.3,2411,2556.9L2411,2556.9z M1163.3,1650.4c0,0-542.1,128.8-191.9,175.6
		c147.9,19.8,442.5,15.2,717.2-7.8c224.4-18.8,449.6-59.1,449.6-59.1s-79.1,33.9-136.3,73c-550.6,144.8-1614.1,77.4-1307.9-70.7
		C952.8,1636.2,1163.3,1650.4,1163.3,1650.4L1163.3,1650.4z M2135.9,2194c559.7-290.8,300.9-570.2,120.2-532.6
		c-44.2,9.2-64,17.2-64,17.2s16.5-25.8,47.8-36.9c357.3-125.6,632.1,370.5-115.2,566.9C2124.7,2208.7,2133.3,2200.9,2135.9,2194z"/>
	<path fill-rule="evenodd" clip-rule="evenodd" d="M1798.5,8.5c0,0,309.9,310.1-294,786.7c-484.3,382.5-110.4,600.5-0.1,849.7
		c-282.7-255-490.1-479.6-351-688.6C1357.6,649.7,1923.5,501,1798.5,8.5L1798.5,8.5z"/>
	<path fill-rule="evenodd" clip-rule="evenodd" d="M1218.3,2982.1c537.1,34.3,1362.1-19.1,1381.7-273.3c0,0-37.6,96.4-443.9,172.8
		c-458.5,86.3-1024.1,76.3-1359.4,20.9C796.6,2902.5,865.3,2959.4,1218.3,2982.1z"/>
</g>
</svg>
