<?xml version="1.0" encoding="utf-8"?>
<!-- Generator: Adobe Illustrator 25.2.1, SVG Export Plug-In . SVG Version: 6.00 Build 0)  -->
<svg version="1.1" id="Capa_1" xmlns="http://www.w3.org/2000/svg" xmlns:xlink="http://www.w3.org/1999/xlink" x="0px" y="0px"
	 viewBox="0 0 3000 3000" enable-background="new 0 0 3000 3000" xml:space="preserve">
<path d="M0,0v3000h3000V0H0z M1633.7,2339.5c0,291.9-171.1,424.8-421,424.8c-225.7,0-356.4-116.8-422.9-257.5l229.5-138.9
	c44.3,78.6,84.6,145,181.4,145c92.6,0,151-36.2,151-177.1v-958.6h281.9V2339.5z M2299.8,2764.8c-261.8,0-431-124.8-513.7-288.3
	l229.1-133.1c60.4,98.7,139,171.2,278.1,171.2c116.8,0,191.4-58.4,191.4-139c0-96.7-76.7-130.9-205.2-187.1l-70.5-30.2
	c-203.4-86.7-338.6-195.2-338.6-424.8c0-211.4,161.1-372.4,412.9-372.4c179.2,0,308.1,62.4,401,225.7l-219.5,141
	c-48.3-86.7-100.5-120.8-181.4-120.8c-82.6,0-134.9,52.4-134.9,120.8c0,84.6,52.4,118.8,173.3,171.2l70.5,30.2
	c239.5,102.7,374.8,207.4,374.8,442.9C2766.9,2625.8,2567.5,2764.8,2299.8,2764.8z"/>
</svg>
