<?xml version="1.0" encoding="utf-8"?>
<!-- Generator: Adobe Illustrator 25.2.1, SVG Export Plug-In . SVG Version: 6.00 Build 0)  -->
<svg version="1.1" id="Capa_1" xmlns="http://www.w3.org/2000/svg" xmlns:xlink="http://www.w3.org/1999/xlink" x="0px" y="0px"
	 viewBox="0 0 3000 3000" enable-background="new 0 0 3000 3000" xml:space="preserve">
<path fill="#FFFFFF" d="M1405.3,621.1c-122.4-183.6-148.9-429-154.7-529.9c-311,67.3-620,187.9-602.2,276.7
	c2.2,11.2,16.3,24.6,39.7,37.6l-36.6,65.5c-44.7-25-69.8-53.9-76.6-88.4C554.8,282.1,668.7,191.2,923,104.6
	c173.7-59.2,348.8-94.5,356.2-95.9l44.8-9v45.8c0,3.1,1.9,321.5,143.7,534.1L1405.3,621.1z"/>
<path fill="#FFFFFF" d="M1530.3,2999.7h-18.8c-614.2,0-1297.8-192.9-1378.6-515.8c-49.3-197.2,111.9-415.1,465.9-629.9l39,64
	c-318.6,193.4-472.1,387.8-432.1,547.7c70.1,280.3,717.9,455,1286.1,458.9c67.6-101,430.5-694.3,223.4-1490.1l72.5-18.9
	c236.1,906.7-241.3,1562.3-246.1,1568.9L1530.3,2999.7z"/>
<path fill="#FFFFFF" d="M419.1,2722.7c-40.4,0-60.4-4.4-63.7-5.2c-13.2-3.2-23.5-13.3-27.1-26.4c-3.7-13,0.1-27.1,9.7-36.6
	c5.4-5.4,539.6-540.5,611.8-973.1l73.9,12.3c-62,372.2-428.5,796.5-574,952.8c145.4-8.3,512.5-76.4,1217.2-470.9
	c-550-60.3-636.9-500.6-637.8-505.3l73.7-13.6c3.5,18.4,91.9,450.7,693.1,450.7c0.2,0,0.4,0,0.6,0l0,0c17,0,31.8,11.4,36.1,27.7
	c4.5,16.3-2.7,33.7-17.3,42.2C972.7,2665.4,564.2,2722.6,419.1,2722.7z"/>
<path fill="#FFFFFF" d="M763.5,2902.2c-15.5,0-29.6-9.6-35.1-24.4c-5.9-15.8-0.5-33.7,13.3-43.6c2.5-1.9,135.9-100.3,277.9-317
	c-54.6-24.1-109.8-52.3-164.7-85.3c-66.6-40-116.9-82.9-154.5-126.8c-192.7,50.8-370.5,70.9-526.7,57.7l6.3-74.7
	c140.7,11.9,300.6-4.7,473.9-48c-117.9-201.5-9.7-401.6-8.2-404.3l65.5,36.5c-5,9.1-94.8,177.7,18.7,347.4
	c165-47.4,341.1-117.5,523.3-208.6c41.9-137.6,74.7-294.1,91.8-470.6c1.2-12.1,8.1-22.8,18.6-28.9s23.3-6.6,34.3-1.6
	c2.4,1.1,244.7,111.8,420.2,184c12.7,5.2,21.6,17.1,23,30.8c1.5,13.7-4.7,27.1-16.2,34.9c-171.6,117-342.1,218.4-508.2,303.1
	c-52.6,166.8-117.8,305.7-184.4,419.2c277.6,103.7,518.5,105.3,521.6,105.3c17.1,0,32,11.5,36.3,28.1c4.3,16.6-3.1,33.9-18.1,42.2
	c-340.4,189.1-882.3,242.3-905.2,244.5C765.9,2902.1,764.7,2902.2,763.5,2902.2z M1092.2,2547.3c-78,121-154.6,207.9-211.9,264.7
	c149.8-22,412.5-70.3,630.4-160.4C1406.4,2638.8,1255.3,2610.3,1092.2,2547.3z M781.7,2282.2c29.5,29.4,66.2,58.1,111.7,85.5
	c55.2,33.1,111.2,61.3,166.5,85.1c56.5-94.8,112.5-208.5,160.6-342.5C1068.9,2182.4,921.8,2240,781.7,2282.2z M1414.1,1599.8
	c-15.4,132.6-39.1,253.5-68.5,363.7c124.5-66.4,251.5-142.2,379.5-226.9C1609.1,1687.3,1481.4,1630.1,1414.1,1599.8z"/>
<path fill="#FFFFFF" d="M1018.4,570.4c-8.8,0-17.5-3.1-24.4-9C873.3,458,731.2,247.8,725.2,238.9c-9.7-14.3-8.2-33.4,3.4-46.2
	c11.5-12.8,30.6-15.8,45.6-7.6c0.8,0.2,70.3,28.9,541.1,107.3c13.6,2.2,24.7,11.7,29.2,24.6c4.6,12.9,1.6,27.3-7.5,37.5
	c-131.8,146.4-298.3,210.9-305.4,213.5C1027.4,569.5,1022.8,570.4,1018.4,570.4z M847.7,281.4C895,345,963.1,431,1025.5,489
	c38.3-17.5,124.2-61.3,205.7-134.8C1037.6,321.1,919.4,297.6,847.7,281.4z"/>
<path d="M1312.2,1605.1c-5.1,0-10.3-1-15.1-3.1c-14.9-6.6-23.9-22-22.2-38.2c21.9-206.1-294.4-288.8-297.6-289.6
	c-13-3.3-23.4-13.4-26.9-26.4c-3.5-13,0.1-26.9,9.7-36.4c15.5-15.5,385.3-382.2,849.3-583.6c13-5.6,27.7-3.5,38.6,5.2
	c10.9,8.8,15.9,23,13,36.7c-88.9,430.7-503.1,903.1-520.7,922.9C1333,1600.7,1322.6,1605.1,1312.2,1605.1z M1058.2,1221.6
	c88.8,33.4,244.3,110.6,283.6,251.6c108.6-135.6,340.6-447.9,427.2-744.8C1440.1,886.5,1163.1,1125.1,1058.2,1221.6z"/>
<path d="M655.1,1902l-35.6-66c141.2-76.1,302.9-216.2,435.4-378.9c-112.8,77.2-177.3,130.1-179.4,131.8l-47.9-57.7
	c2.9-2.4,132.3-108.5,347.2-241.4c59-94.9,104.4-192.5,127.7-286.1c4-15.9,7.4-31.3,10.2-46.1c-144.3-51.5-277.5-82-369-95.1
	c-13.9-1.9-25.4-11.5-30.1-24.6c-4.6-13.1-1.6-27.8,7.8-38c6.4-6.9,158.7-170.1,349-259.7c14.8-7,32.5-3.5,43.6,8.5
	c5,5.5,108,121.1,81.8,360.3c86.6,33.7,175.8,74.8,261.8,123.6c206.9-93,441.8-176.7,692-227.2c12.9-2.5,27.2,2.1,36.1,12.6
	c8.8,10.5,11.2,25,6.2,37.7c-97.5,249.8-358.9,516.7-369.9,527.9c-7.6,7.6-17.9,11.5-28.7,11.1c-10.7-0.6-20.6-5.7-27.4-14.1
	c-84-105.6-193.7-193-312.1-264.2c-163.1,75.3-307.5,155.8-426.2,228.6C1076,1581.4,847.4,1798.4,655.1,1902z M1735.8,1079.9
	c96.7,62.4,186.8,135.7,261.2,221c62.1-67.3,211.1-237.5,295.6-406.5C2093.9,940.2,1905.8,1006.4,1735.8,1079.9z M1383.9,984.4
	c-2.5,12.2-5.3,24.7-8.5,37.5c-15.7,62.9-40.8,127.5-72.9,192c82.2-46.9,173.1-95.4,271.3-142.3
	C1511,1038.3,1446.9,1009.4,1383.9,984.4z M1027.7,800.7c83.3,16.3,185.9,43,295.5,81.4c11.4-138.2-25.9-222.8-48.5-260.3
	C1171.5,675.6,1081.1,751.4,1027.7,800.7z"/>
<path d="M1027.8,1162.7c0,328.4-273.7,589.3-470.9,779.8c-33,32.2-144.7,37.5-144.7,37.5c27.7-28.5,59.2-58.5,93-90.7
	c187.4-181.5,447.6-429.6,447.6-726.6c0-351.7-141.7-490.4-253.4-601.3c-49.5-50.2-91.5-98.2-117-156.7l23.2-9.7
	c25.5,11.2,54.7,24,77.2,33.7c18,26.2,42,51.7,69.7,79.5C867.4,622.8,1027.8,780.3,1027.8,1162.7z"/>
<path d="M2893.7,1259.7c0,0-45.4,6.4-58.1,7.9c-656.8,72.7-1334.6,261.7-1722.3,416.9c-140.2,56.2-285.7,124.5-418.4,200.9
	c-0.7,0.7-1.5,0.7-3,1.5c-78,45-267.7,138-421.4,219.7c224.9-239.2,646.3-423.6,814.3-491.1c380.1-152.2,1033.2-335.9,1675.8-414.6
	c-75.7-88.5-260.9-275.9-625.3-415.4c-212.9-82.5-536.9-129-822.5-170.2C858.4,550.1,599.7,506.6,575,382.9
	c-5.2-24.7-1.5-49.5,9.7-73.5c24.7,40.5,60,69,83.2,85.5c11.2,7.5,19.5,12,22.5,13.5l0.7,0.7c106.5,56.2,393.6,97.5,632.8,132
	c289.4,42,617.1,89.2,838.3,174c515.1,198.7,692.8,482.9,700.3,494.9C2869.3,1221.2,2893.7,1259.7,2893.7,1259.7z"/>
</svg>
