<?xml version="1.0" encoding="utf-8"?>
<!-- Generator: Adobe Illustrator 25.2.1, SVG Export Plug-In . SVG Version: 6.00 Build 0)  -->
<svg version="1.1" id="Capa_1" xmlns="http://www.w3.org/2000/svg" xmlns:xlink="http://www.w3.org/1999/xlink" x="0px" y="0px"
	 viewBox="0 0 3000 3000" enable-background="new 0 0 3000 3000" xml:space="preserve">
<path d="M2765,2309.4c-163.2-4.1-289.7,12.3-395.8,57.1c-30.6,12.2-79.6,12.2-83.7,51c16.3,16.3,18.4,42.9,32.7,65.3
	c24.5,40.8,67.3,95.9,106.1,124.5c42.8,32.6,85.7,65.3,130.6,93.9c79.6,49,169.4,77.5,246.9,126.5c44.9,28.5,89.8,65.3,134.7,95.9
	c22.5,16.3,36.7,42.8,65.3,53v-6.1c-14.3-18.4-18.4-44.9-32.6-65.3c-20.4-20.4-40.8-38.8-61.2-59.2
	c-59.2-79.6-132.6-148.9-212.2-206.1c-65.3-44.9-208.1-106.1-234.6-181.6c0,0-2-2-4.1-4.1c44.9-4.1,97.9-20.4,140.8-32.7
	c69.4-18.4,132.6-14.3,204-32.6c32.6-8.2,65.3-18.4,97.9-28.6v-18.4c-36.7-36.7-63.2-85.7-102-120.4
	c-104.1-89.8-218.3-177.5-336.7-251c-63.3-40.8-144.9-67.3-212.2-102c-24.5-12.3-65.3-18.4-79.6-38.8
	c-36.7-44.9-57.1-104.1-83.7-157.1c-59.2-112.2-116.3-236.7-167.3-355c-36.7-79.6-59.2-159.2-104.1-232.6
	c-210.2-346.9-438.7-557-789.6-763.1c-75.5-42.8-165.3-61.2-261.2-83.7c-51-2-102-6.1-153-8.2c-32.6-14.3-65.3-53-93.9-71.4
	C400.2,85.4,100.3-73.7,14.6,136.4C-40.5,269,96.2,399.6,143.1,467c34.7,46.9,79.6,100,104.1,153c14.3,34.7,18.4,71.4,32.6,108.1
	c32.7,89.8,63.2,189.8,106.1,273.4c22.5,42.8,46.9,87.7,75.5,126.5c16.3,22.4,44.9,32.7,51,69.4c-28.6,40.8-30.6,102-46.9,153
	c-73.4,230.6-44.9,516.2,59.2,685.6c32.6,51,110.2,163.2,214.2,120.4c91.8-36.7,71.4-153,97.9-255c6.1-24.5,2-40.8,14.3-57.1
	c0,2,0,4.1,0,4.1c28.6,57.1,57.1,112.2,83.7,169.3c63.3,100,173.4,204,265.2,273.4c49,36.7,87.7,100,149,122.4v-6.1h-4.1
	c-12.3-18.4-30.6-26.5-46.9-40.8c-36.7-36.7-77.5-81.6-106.1-122.4c-85.7-114.3-161.2-240.8-228.5-371.4
	c-32.6-63.2-61.2-132.6-87.7-195.9c-12.3-24.5-12.3-61.2-32.7-73.4c-30.6,44.9-75.5,83.7-97.9,138.7
	c-38.7,87.7-42.8,195.9-57.1,308.1c-8.2,2-4.1,0-8.2,4.1c-65.3-16.3-87.7-83.7-112.2-140.8c-61.2-144.9-71.4-377.5-18.4-544.8
	c14.3-42.9,75.5-177.5,51-218.3c-12.2-38.8-53.1-61.2-75.5-91.8c-26.5-38.8-55.1-87.7-73.4-130.6c-49-114.3-73.5-240.8-126.5-355
	c-24.5-53.1-67.3-108.1-102-157.1c-38.8-55.1-81.6-93.9-112.2-159.2c-10.2-22.4-24.5-59.2-8.2-83.7c4.1-16.3,12.2-22.4,28.6-26.5
	c26.5-22.5,102,6.1,128.5,18.4c75.5,30.6,138.7,59.2,202,102c28.6,20.4,59.2,59.2,95.9,69.4h42.9c65.3,14.3,138.7,4.1,200,22.4
	c108.2,34.7,206.1,85.7,293.8,140.8c267.3,169.3,487.6,410.1,636.6,697.8c24.5,46.9,34.7,89.8,57.1,138.7
	c42.9,100,95.9,202,138.7,299.9c42.8,95.9,83.7,193.8,144.9,273.4c30.6,42.8,153,65.3,208.1,87.7c40.8,18.4,104.1,34.7,140.8,57.1
	c69.4,42.8,138.7,91.8,204,138.7C2656.9,2217.6,2758.9,2268.6,2765,2309.4L2765,2309.4L2765,2309.4z"/>
<path d="M683.8,536.3c-34.7,0-59.2,4.1-83.7,10.2c0,0,0,2,0,4.1h4.1c16.3,32.6,44.9,55.1,65.3,83.7c16.3,32.6,30.6,65.3,46.9,97.9
	c2-2,4.1-4.1,4.1-4.1c28.6-20.4,42.9-53.1,42.9-102c-12.3-14.3-14.3-28.6-24.5-42.9C726.7,562.8,700.1,552.6,683.8,536.3
	L683.8,536.3L683.8,536.3z"/>
</svg>
