<?xml version="1.0" encoding="utf-8"?>
<!-- Generator: Adobe Illustrator 25.2.1, SVG Export Plug-In . SVG Version: 6.00 Build 0)  -->
<svg version="1.1" id="Capa_1" xmlns="http://www.w3.org/2000/svg" xmlns:xlink="http://www.w3.org/1999/xlink" x="0px" y="0px"
	 viewBox="0 0 3000 3000" style="enable-background:new 0 0 3000 3000;" xml:space="preserve">
<style type="text/css">
	.st0{fill:#020203;}
</style>
<g>
	<path class="st0" d="M45.1,2618.1c364.3-65.7,594.5-264.7,685.6-609c72.3-273.1-21-595-212.7-762.8c45.5-8.1,82.3,10.3,119.1,20
		c499.5,131.8,950.7,352.7,1320.2,721c169,168.5,304.7,360.1,391.6,583.9c3.8,9.9,7.9,19.7,11.3,29.7c1.6,4.8,1.8,10,3,17.1
		C1594.6,2618.1,827.3,2618.1,45.1,2618.1z"/>
	<path class="st0" d="M2954.9,2617.3c-177.4,0.5-354.8,1.1-532.3,1.6c-196.8-561.9-577.6-971.9-1070.2-1289.4
		c-95.4-61.5-194.6-116.5-296.3-166.9c-14.9-7.4-32.7-10.5-35.2-34.3C993.3,859.8,909.6,611,747.1,381
		c112.7,29.7,213.3,66,310.8,108.6c883.8,385.7,1509.2,1017.1,1835.8,1930.5C2916.9,2484.9,2934.8,2551.6,2954.9,2617.3z"/>
</g>
</svg>
