<?xml version="1.0" encoding="utf-8"?>
<!-- Generator: Adobe Illustrator 25.2.1, SVG Export Plug-In . SVG Version: 6.00 Build 0)  -->
<svg version="1.1" id="Capa_1" xmlns="http://www.w3.org/2000/svg" xmlns:xlink="http://www.w3.org/1999/xlink" x="0px" y="0px"
	 viewBox="0 0 3000 3000" enable-background="new 0 0 3000 3000" xml:space="preserve">
<path d="M1499.9,710.6c-828.4,0-1500,353.3-1500,789.1c0,435.8,671.6,789.1,1500,789.1s1500-353.3,1500-789.1
	C2999.9,1063.9,2328.3,710.6,1499.9,710.6z M1499.9,2230.2c-796.1,0-1441.4-327-1441.4-730.5c0-403.4,645.3-730.5,1441.4-730.5
	s1441.4,327.1,1441.4,730.5C2941.3,1903.1,2296,2230.2,1499.9,2230.2z"/>
<g id="g3478">
	<path fill="#020203" d="M957.7,1150.8H626.4l-153.7,790.7H645l40.9-210.2h147.5c65.1,0,118.7-6.8,160.7-20.5
		c42-13.7,80.3-36.6,114.7-68.8c28.9-26.5,52.2-55.8,70.1-87.8c17.9-32,30.6-67.3,38.1-105.9c18.2-93.7,4.5-166.7-41.2-219
		C1130,1177,1057.3,1150.8,957.7,1150.8z M1038.9,1436.2c-11.9,61.2-34.8,104.9-68.8,131.1c-34,26.2-85.7,39.2-155.2,39.2H710.1
		l64.3-330.9h118c65.4,0,109.1,12.1,130.9,36.2C1045.1,1336,1050.3,1377.5,1038.9,1436.2z"/>
	<path fill="#020203" d="M1873,1363.3c14.5-74.9,3.6-129-32.7-162.4c-36.4-33.4-102.4-50.1-198.2-50.1h-152.2l40.9-210.2h-170.9
		L1206,1731.3h170.9l88-453h136.6c43.7,0,72.3,7.2,85.7,21.7c13.4,14.5,16.3,41.6,8.5,81.4l-68,349.9h173.6L1873,1363.3z"/>
	<path fill="#020203" d="M2302.2,1150.8L2302.2,1150.8h-331.2l-153.7,790.7h172.3l40.9-210.2h147.5c65.1,0,118.7-6.8,160.7-20.5
		c42-13.7,80.3-36.6,114.7-68.8c28.9-26.5,52.2-55.8,70.1-87.8c17.9-32,30.6-67.3,38.1-105.9c18.2-93.7,4.5-166.7-41.2-219
		C2474.5,1177,2401.8,1150.8,2302.2,1150.8z M2383.4,1436.2c-11.9,61.2-34.8,104.9-68.8,131.1c-34,26.2-85.7,39.2-155.2,39.2h-104.8
		l64.3-330.9h118c65.4,0,109.1,12.1,130.9,36.2C2389.6,1336,2394.8,1377.5,2383.4,1436.2z"/>
</g>
</svg>
