<?xml version="1.0" encoding="utf-8"?>
<!-- Generator: Adobe Illustrator 25.2.1, SVG Export Plug-In . SVG Version: 6.00 Build 0)  -->
<svg version="1.1" id="Capa_1" xmlns="http://www.w3.org/2000/svg" xmlns:xlink="http://www.w3.org/1999/xlink" x="0px" y="0px"
	 viewBox="0 0 3000 3000" style="enable-background:new 0 0 3000 3000;" xml:space="preserve">
<style type="text/css">
	.st0{fill:#020203;}
</style>
<g>
	<path class="st0" d="M1262.7,1006.4c3.2,0.4,6.4,0.6,9.6,0.6c37.4,0,70.4-28.5,73.5-50.2c0.7-4.8,0.3-12.1-5.7-20
		c-10.7-14.2-36.4-25.6-66.9-29.6c-37.2-5-79.1,1.6-83.1,28c-1.9,12.6,7,26.6,12.4,33.9C1217.9,989.5,1240.4,1003.5,1262.7,1006.4z"
		/>
	<path class="st0" d="M2277,895.4c-12.1-9.6-38.7-13.4-67.6-9.5c-28.4,3.7-52.8,14.3-62.3,26.9c-4.5,6-4.9,11.4-4.3,14.7
		c2.4,16.7,31.1,44.3,66.3,44.3c2.9,0,5.9-0.2,8.9-0.6c20.5-2.7,41.3-15.6,55.5-34.6c3.8-5.1,12.6-18,11.1-28.4
		C2284.2,904.8,2282.6,899.9,2277,895.4z"/>
	<path class="st0" d="M2944.9,1796.8c-10.1-30.5-55.7-127.3-220.3-93.3c-66,13.6-114.9,18.8-150.7,19.8
		c134.9-227.7,244.5-487.4,307.6-731.8c56.3-218.1,99.3-509.2-16.2-656.7C2696.6,119.3,2450.5,3.5,2153.6-0.1
		c-158.4-2-297.5,29.3-370,51.8c-67.5-11.9-140.2-18.6-216.4-19.8c-142.8-2.3-269,28.9-376.9,92.9c-59.7-20.2-155.5-48.6-266.2-66.8
		c-260.2-42.7-470-9.4-623.4,98.9C114.9,288.2,28.8,516.2,44.7,834.6c5.1,101.1,61.6,408.7,150.7,700.5
		c51.2,167.7,105.8,306.9,162.2,413.9c80.1,151.7,165.7,241,261.9,273.1c53.9,18,151.7,30.5,254.6-55c37.3,44.8,97.2,74,155,88.5
		c129.2,32.3,250.3,24.2,353.5-21c0.6,18.4,1.1,35.9,1.5,51.1c0.7,24.6,1.4,48.6,2.3,71.2c6.1,152.4,16.5,270.9,47.2,353.8
		c1.7,4.6,4,11.5,6.4,18.9c15.3,46.9,40.9,125.5,106.1,187c43.4,40.9,114.7,83.4,223.9,83.4c31.6,0,66.5-3.6,104.7-11.8
		c111.9-24,239-60.5,330.9-191.4c86.9-123.7,129.2-310.1,136.8-603.7c1-8.3,1.9-16.2,2.8-23.8c0.6-5.1,1.2-10.3,1.8-15.5l20.4,1.8
		l5.3,0.4c114,5.2,253.3-19,338.9-58.7C2779.2,2065.7,2995.9,1951.3,2944.9,1796.8z M2733,416.9
		c104.6,133.5-10.4,740.4-343.6,1263.9c-3.2-4.1-6.6-8.3-10-12.5c-1.4-1.7-2.7-3.4-4.1-5.1c86.3-141.9,69.4-282.7,54.4-407.6
		c-6.1-51.1-11.9-99.3-10.5-144.4c1.7-47.5,8-88.4,14.1-127.9c7.6-49.4,15.4-100.6,13.2-160.8c1.6-6.3,2.2-13.7,1.3-22.5
		c-5.5-57.6-71.3-229.8-204.9-385.2c-73.3-85.3-180.3-180.7-326.5-245C2100.9,131.2,2484.5,99.7,2733,416.9z M2346.4,1265.6
		c12.7,105.3,25.6,213.7-24.8,320.5c-7.7-13.7-15.1-28.6-21.9-45c-6.2-15.1-19.8-39.5-38.6-73.3
		c-72.8-130.6-243.4-436.6-156.1-561.5c45-64.3,158.8-67.2,258-55c-0.7,41.8-6.4,79.7-12.6,119.2c-6.5,41.9-13.2,85.3-15,137.9
		C2333.7,1160,2340.2,1213.7,2346.4,1265.6z M801.8,1981.5c-67.2,80.9-113.7,65.4-129,60.3c-99.5-33.1-214.9-243.4-316.7-576.8
		c-88.1-288.5-139.6-578.5-143.6-659.8C199.7,548,262.1,368.7,397.9,272.4c221.1-156.8,584.5-63,730.5-15.4
		c-2.2,2.1-4.4,4.1-6.5,6.3C880.4,507.3,888,925.5,888.5,945c0,9.3,0.8,22.3,1.9,40.2c4.2,69.7,12,199.5-8.9,347.1
		c-19.2,136,22.7,269.2,114.8,365.4c9.8,10.3,20.1,19.9,30.7,28.9C985.8,1770.6,896.8,1867.4,801.8,1981.5z M974.2,980.1
		c-0.6-9.4-1.1-17.6-1.4-24.3c35-31,196.8-117.7,312.6-91.3c52.9,12.1,85.1,48,98.4,109.9c69.3,319.6,9.3,453.2-39,560.6
		c-9.9,22.1-19.3,43-27.4,64.6l-6.3,16.9c-15.7,42-30.3,81.1-39.3,118.3c-79.3-0.2-156.4-34-215-95.2
		c-74.2-77.5-107.9-185.3-92.3-295.6C986.7,1188,978.3,1047.6,974.2,980.1z M1453.9,1927.1c-0.7,8.2-3.1,16.8-8.6,24.4
		c-107.3,149.7-263.4,147.8-375.1,119.9c-23.2-6-44-16.1-56.2-24.4c10.2-4.8,28.3-11.3,59.7-17.8c151.9-31.4,175.3-53.4,226.5-118.4
		c11.7-14.9,25.1-31.8,43.5-52.4c27.2-30.4,39.2-25.4,63.4-15.3c18.3,7.4,36.3,30.3,43.6,55.5c1.5,5.3,3.2,12.8,3.4,21
		C1454,1922.1,1454,1924.6,1453.9,1927.1z M2212,1953.4c-6.6,78.6-50.1,447.7-73.4,581.3c-29.9,173.4-93.7,238.1-273.3,276.6
		c-186.5,40.2-252-54.6-295.1-163.3c-28.1-69.4-41.9-385-32-734.1c0.1-4.3-0.4-8.5-1.5-12.5c-1.1-8.6-2.9-17.3-5.4-26
		c-14.7-50.6-50.2-92.8-92.4-109.9c-17-7-48.2-20-85.5-10.5c7.9-32.5,21.6-69.3,36.4-109.1l6.3-17c7-18.9,15.9-38.6,25.2-59.4
		c50.5-112.3,119.7-266.2,44.5-612.8c-28.2-130.5-122.6-194-265.8-178.7c-85.1,9.1-162.7,43.4-201.4,63c-8.1,4.1-15.6,8.1-22.6,12
		c10.7-130.9,51.6-375.4,205.4-530.8c96.7-97.7,225.5-146,382.7-143.4c309.6,5.1,507.9,163.8,619.8,296
		c96.4,113.9,148.6,228.7,169.4,290.7c-156.7-15.8-263.3,15.2-317.4,92.5c-117.5,168,64.2,493.9,151.5,650.5
		c16.1,28.8,30,53.7,34.3,64.4c28.3,68.5,65.1,114.3,91.9,147.8c8.4,10.4,16.5,20.6,22.7,29.4
		C2289.1,1763.9,2204.1,1795.5,2212,1953.4z M2641.2,1924.4c-48.4,22.5-129.5,39.3-206.6,43c-85.2,4.1-128.6-9.5-138.8-17.8
		c0,0,0-0.1,0-0.1c-5.1-99.3,31.6-109.5,70.4-120.3c6.1-1.7,12-3.3,17.7-5.3c10.8,8.7,24.6,17.3,42.4,24.6
		c71.9,29.7,183.9,29.4,332.9-1.2c0.6-0.1,1.3-0.3,1.9-0.4C2737.8,1868.8,2697.9,1898.1,2641.2,1924.4z"/>
</g>
</svg>
