<?xml version="1.0" encoding="utf-8"?>
<!-- Generator: Adobe Illustrator 25.2.1, SVG Export Plug-In . SVG Version: 6.00 Build 0)  -->
<svg version="1.1" id="Capa_1" xmlns="http://www.w3.org/2000/svg" xmlns:xlink="http://www.w3.org/1999/xlink" x="0px" y="0px"
	 viewBox="0 0 3000 3000" enable-background="new 0 0 3000 3000" xml:space="preserve">
<path id="path1948" d="M1482.3,0c-122.4,0.6-239.2,11-342,29.2c-302.9,53.5-357.9,165.5-357.9,372V674h715.7v90.9H782.5H513.9
	c-208,0-390.1,125-447.1,362.9c-65.7,272.6-68.6,442.7,0,727.4c50.9,211.9,172.4,362.9,380.4,362.9h246.1v-327
	c0-236.2,204.4-444.6,447.1-444.6h714.9c199,0,357.9-163.8,357.9-363.7V401.3c0-194-163.6-339.7-357.9-372
	C1732.3,8.8,1604.7-0.5,1482.3,0z M1095.3,219.4c73.9,0,134.3,61.4,134.3,136.8c0,75.2-60.4,136-134.3,136
	c-74.2,0-134.3-60.8-134.3-136C961,280.8,1021.1,219.4,1095.3,219.4z"/>
<path id="path1950" fill="none" stroke="#000000" stroke-width="10" stroke-miterlimit="10" d="M2302.3,764.9v317.8
	c0,246.4-208.9,453.8-447.1,453.8h-714.9c-195.8,0-357.9,167.6-357.9,363.7v681.5c0,194,168.7,308,357.9,363.7
	c226.6,66.6,443.8,78.7,714.9,0c180.2-52.2,357.9-157.2,357.9-363.7V2309h-714.9V2218h714.9h357.9c208,0,285.5-145.1,357.9-362.9
	c74.7-224.2,71.5-439.8,0-727.4c-51.4-207.1-149.6-362.9-357.9-362.9L2302.3,764.9z M1900.2,2490.8c74.2,0,134.3,60.8,134.3,136
	c0,75.4-60.1,136.8-134.3,136.8c-73.9,0-134.3-61.4-134.3-136.8C1765.9,2551.6,1826.3,2490.8,1900.2,2490.8z"/>
</svg>
