<?xml version="1.0" encoding="utf-8"?>
<!-- Generator: Adobe Illustrator 25.2.1, SVG Export Plug-In . SVG Version: 6.00 Build 0)  -->
<svg version="1.1" id="Capa_1" xmlns="http://www.w3.org/2000/svg" xmlns:xlink="http://www.w3.org/1999/xlink" x="0px" y="0px"
	 viewBox="0 0 3000 3000" style="enable-background:new 0 0 3000 3000;" xml:space="preserve">
<path id="path1948" d="M1482.3,0c-122.4,0.6-239.2,11-342,29.2c-302.9,53.5-357.9,165.5-357.9,372V674h715.7v90.9H782.5H513.9
	c-208,0-390.1,125-447.1,362.9c-65.7,272.6-68.6,442.7,0,727.4c50.9,211.9,172.4,362.9,380.4,362.9h246.1v-327
	c0-236.2,204.4-444.6,447.1-444.6h714.9c199,0,357.9-163.8,357.9-363.7V401.3c0-194-163.6-339.7-357.9-372
	C1732.3,8.8,1604.7-0.5,1482.3,0z M1095.3,219.4c73.9,0,134.3,61.4,134.3,136.8c0,75.2-60.4,136-134.3,136
	c-74.2,0-134.3-60.8-134.3-136C961,280.8,1021.1,219.4,1095.3,219.4z"/>
<g id="path1950">
	<path d="M2571,794.8L2571,794.8c89.5,0,159.9,30.6,215.2,93.6c25.2,28.7,47.8,64.9,67,107.5c17.8,39.6,33.5,86.4,46.6,139
		c18.1,72.6,31.2,138.2,40.1,200.5c9.1,63.7,13.7,122.6,13.9,179.9c0.2,57.7-4,112.4-12.9,167.2c-8.8,54.6-22,108-40.4,163.1
		c-20.2,60.9-38,107-55.9,145.3c-20.9,44.7-42.7,79.9-66.5,107.7c-25.5,29.7-53.6,51.3-85.9,65.9c-34.9,15.8-74.5,23.4-121.1,23.4
		h-357.9h-714.9h-30v30v91v30h30h684.9v242.7c0,44.7-9.3,86.2-27.5,123.4c-16.7,34.1-41.5,65.6-73.6,93.7
		c-56.3,49.2-135.4,88.9-235.1,117.8c-123.8,35.9-238.7,53.4-351.3,53.4c-58.2,0-115.2-4.6-174.4-13.9
		c-55.7-8.8-112.1-21.7-172.4-39.4c-47.7-14-91.6-31.2-130.6-51c-41.9-21.3-78.1-45.6-107.6-72.4c-31.4-28.4-55.5-60-71.8-93.7
		c-17.5-36.1-26.3-75.8-26.3-117.8v-681.5c0-43.9,8.8-86.9,26-127.9c16.7-39.7,40.6-75.5,70.9-106.5c30.4-31.1,65.5-55.5,104.5-72.6
		c40.3-17.7,82.9-26.7,126.5-26.7h714.9c258.6,0,477.1-221.6,477.1-483.8V794.9L2571,794.8 M1900.2,2793.6
		c90.6,0,164.3-74.8,164.3-166.8c0-91.5-73.7-166-164.3-166c-90.6,0-164.3,74.5-164.3,166
		C1735.9,2718.8,1809.6,2793.6,1900.2,2793.6 M2571,764.8l-268.7,0.1v317.8c0,246.4-208.9,453.8-447.1,453.8h-714.9
		c-195.8,0-357.9,167.6-357.9,363.7v681.5c0,194,168.7,308,357.9,363.7c118,34.7,233.4,54.6,355.3,54.6
		c112.1,0,229.7-16.9,359.6-54.6c180.2-52.2,357.9-157.2,357.9-363.7V2309h-714.9v-91h714.9H2571c208,0,285.5-145.1,357.9-362.9
		c74.7-224.2,71.5-439.8,0-727.4C2877.5,920.6,2779.3,764.8,2571,764.8L2571,764.8z M1900.2,2763.6c-73.9,0-134.3-61.4-134.3-136.8
		c0-75.2,60.4-136,134.3-136c74.2,0,134.3,60.8,134.3,136C2034.5,2702.2,1974.4,2763.6,1900.2,2763.6L1900.2,2763.6z"/>
</g>
</svg>
