<?xml version="1.0" encoding="utf-8"?>
<!-- Generator: Adobe Illustrator 25.2.1, SVG Export Plug-In . SVG Version: 6.00 Build 0)  -->
<svg version="1.1" id="Capa_1" xmlns="http://www.w3.org/2000/svg" xmlns:xlink="http://www.w3.org/1999/xlink" x="0px" y="0px"
	 viewBox="0 0 3000 3000" style="enable-background:new 0 0 3000 3000;" xml:space="preserve">
<style type="text/css">
	.st0{fill:none;}
	.st1{fill:#FFFFFF;}
</style>
<g>
	<path class="st0" d="M2361.2,60.9c3.1-1.9,6.2-3.8,9.3-5.7C2367.4,57,2364.3,58.9,2361.2,60.9z"/>
	<path class="st0" d="M2396.6,40.5c1-0.5,2-1,2.9-1.5C2398.6,39.5,2397.6,40,2396.6,40.5z"/>
	<path class="st0" d="M2353.5,65.8c0.8-0.5,1.6-1.1,2.5-1.6C2355.1,64.7,2354.3,65.2,2353.5,65.8z"/>
	<path class="st0" d="M2357.4,63.3c0.8-0.5,1.7-1.1,2.5-1.6C2359.1,62.2,2358.2,62.7,2357.4,63.3z"/>
	<path class="st0" d="M2378.9,50.2c1-0.5,1.9-1.1,2.9-1.6C2380.8,49.2,2379.8,49.7,2378.9,50.2z"/>
	<path class="st0" d="M2382.3,48.3c3.3-1.8,6.5-3.6,9.8-5.4C2388.8,44.7,2385.6,46.5,2382.3,48.3z"/>
	<path class="st0" d="M2392.8,42.6c1-0.5,2-1,2.9-1.6C2394.7,41.5,2393.8,42,2392.8,42.6z"/>
	<path class="st0" d="M2375.1,52.5c0.9-0.5,1.8-1.1,2.7-1.6C2376.9,51.4,2376,51.9,2375.1,52.5z"/>
	<path class="st0" d="M2349.5,68.4c0.8-0.6,1.7-1.1,2.5-1.6C2351.2,67.3,2350.4,67.8,2349.5,68.4z"/>
	<path class="st0" d="M2371.2,54.8c0.9-0.6,1.9-1.1,2.8-1.6C2373,53.7,2372.1,54.2,2371.2,54.8z"/>
	<path class="st0" d="M2318.2,90.4c0.6-0.5,1.3-0.9,1.9-1.4C2319.4,89.5,2318.8,90,2318.2,90.4z"/>
	<path class="st0" d="M2314.1,93.5c0.6-0.5,1.2-0.9,1.9-1.4C2315.4,92.5,2314.7,93,2314.1,93.5z"/>
	<path class="st0" d="M2322.3,87.4c0.6-0.5,1.2-0.9,1.9-1.4C2323.5,86.5,2322.9,86.9,2322.3,87.4z"/>
	<path class="st0" d="M2310.1,96.5c0.6-0.4,1.1-0.9,1.7-1.3C2311.2,95.7,2310.7,96.1,2310.1,96.5z"/>
	<path class="st0" d="M2305.2,100.3c0.4-0.4,0.9-0.7,1.3-1C2306.1,99.6,2305.7,100,2305.2,100.3z"/>
	<path class="st0" d="M2339.8,74.9c0.8-0.5,1.5-1,2.3-1.5C2341.3,73.9,2340.5,74.4,2339.8,74.9z"/>
	<path class="st0" d="M2327.3,83.7c0.8-0.6,1.7-1.2,2.5-1.8C2329,82.5,2328.2,83.1,2327.3,83.7z"/>
	<path class="st0" d="M2343.6,72.3c1.7-1.1,3.4-2.3,5.1-3.4C2347,70.1,2345.3,71.2,2343.6,72.3z"/>
	<path class="st0" d="M2335.8,77.7c0.7-0.5,1.5-1,2.2-1.5C2337.3,76.7,2336.5,77.2,2335.8,77.7z"/>
	<path class="st0" d="M2331.8,80.5c0.7-0.5,1.4-1,2.1-1.5C2333.2,79.5,2332.5,80,2331.8,80.5z"/>
	<path class="st0" d="M2470.9,10.7c0.9-0.3,1.8-0.5,2.7-0.7C2472.7,10.2,2471.8,10.4,2470.9,10.7z"/>
	<path class="st0" d="M2488.3,6.3c0.8-0.2,1.7-0.4,2.5-0.5C2490,6,2489.1,6.2,2488.3,6.3z"/>
	<path class="st0" d="M2478.5,8.6c0.9-0.2,1.8-0.4,2.7-0.7C2480.3,8.2,2479.4,8.4,2478.5,8.6z"/>
	<path class="st0" d="M2481.8,7.8c2-0.5,4-0.9,6-1.4C2485.8,6.9,2483.8,7.3,2481.8,7.8z"/>
	<path class="st0" d="M2509.4,2.6c0.7-0.1,1.4-0.2,2-0.3C2510.8,2.4,2510.1,2.5,2509.4,2.6z"/>
	<path class="st0" d="M2499.8,4.1c0.8-0.1,1.5-0.3,2.3-0.4C2501.4,3.8,2500.6,4,2499.8,4.1z"/>
	<path class="st0" d="M2503.1,3.6c1.5-0.2,3.1-0.5,4.6-0.7C2506.2,3.1,2504.6,3.3,2503.1,3.6z"/>
	<path class="st0" d="M2492.2,5.5c0.8-0.2,1.6-0.3,2.4-0.5C2493.7,5.2,2492.9,5.4,2492.2,5.5z"/>
	<path class="st0" d="M2300.6,104c0.5-0.4,1-0.8,1.6-1.2C2301.7,103.1,2301.1,103.6,2300.6,104z"/>
	<path class="st0" d="M2496,4.8c0.8-0.1,1.5-0.3,2.3-0.4C2497.6,4.5,2496.8,4.6,2496,4.8z"/>
	<path class="st0" d="M2414.3,31.8c1-0.5,2-0.9,3-1.4C2416.3,30.9,2415.3,31.3,2414.3,31.8z"/>
	<path class="st0" d="M2460.6,13.7c3.2-1,6.4-1.9,9.5-2.8C2467,11.7,2463.8,12.7,2460.6,13.7z"/>
	<path class="st0" d="M2418,30.1c1-0.5,2.1-0.9,3.1-1.4C2420.1,29.2,2419.1,29.6,2418,30.1z"/>
	<path class="st0" d="M2421.4,28.6c3.4-1.5,6.8-3,10.2-4.4C2428.2,25.6,2424.8,27.1,2421.4,28.6z"/>
	<path class="st0" d="M2400.2,38.7c4.5-2.3,8.9-4.5,13.4-6.5C2409.1,34.2,2404.7,36.4,2400.2,38.7z"/>
	<path class="st0" d="M2431.9,24.1c1-0.4,2-0.8,3-1.2C2434,23.3,2433,23.7,2431.9,24.1z"/>
	<path class="st0" d="M2435.7,22.5c1-0.4,2-0.8,3-1.2C2437.7,21.8,2436.7,22.2,2435.7,22.5z"/>
	<path class="st0" d="M2453.4,16.1c1-0.3,1.9-0.6,2.9-1C2455.3,15.4,2454.3,15.7,2453.4,16.1z"/>
	<path class="st0" d="M2457.1,14.8c1-0.3,1.9-0.6,2.9-0.9C2459.1,14.2,2458.1,14.5,2457.1,14.8z"/>
	<path class="st0" d="M2439.4,21.1c4.4-1.7,8.8-3.3,13.2-4.8C2448.2,17.8,2443.8,19.4,2439.4,21.1z"/>
	<path class="st0" d="M2474.7,9.6c0.9-0.2,1.8-0.5,2.6-0.7C2476.5,9.2,2475.6,9.4,2474.7,9.6z"/>
	<path class="st0" d="M2641.7,22.4c0.1,0.1,0.2,0.1,0.4,0.2C2641.9,22.5,2641.8,22.4,2641.7,22.4z"/>
	<path class="st0" d="M2631.6,17.9c0.1,0.1,0.3,0.1,0.4,0.2C2631.9,18,2631.8,17.9,2631.6,17.9z"/>
	<path class="st0" d="M2606.4,9C2606.4,9,2606.5,9,2606.4,9C2606.5,9,2606.4,9,2606.4,9z"/>
	<path class="st0" d="M2621.6,13.9c0.1,0.1,0.3,0.1,0.4,0.2C2621.8,14,2621.7,14,2621.6,13.9z"/>
	<path class="st0" d="M2646.8,24.9c0.1,0.1,0.3,0.1,0.4,0.2C2647,25,2646.9,24.9,2646.8,24.9z"/>
	<path class="st0" d="M2611.5,10.5c0.1,0,0.2,0.1,0.3,0.1C2611.7,10.5,2611.6,10.5,2611.5,10.5z"/>
	<path class="st0" d="M2651.7,27.4c0.1,0,0.1,0.1,0.2,0.1C2651.9,27.5,2651.8,27.5,2651.7,27.4z"/>
	<path class="st0" d="M2675.9,42.2c0.3,0.2,0.5,0.4,0.8,0.5C2676.5,42.5,2676.2,42.3,2675.9,42.2z"/>
	<path class="st0" d="M2681.1,45.8c0.2,0.1,0.4,0.3,0.6,0.4C2681.5,46,2681.3,45.9,2681.1,45.8z"/>
	<path class="st0" d="M2656.6,30.1c0.2,0.1,0.4,0.2,0.6,0.3C2657,30.3,2656.8,30.2,2656.6,30.1z"/>
	<path class="st0" d="M2671.5,39.2C2671.6,39.2,2671.6,39.2,2671.5,39.2C2671.6,39.2,2671.6,39.2,2671.5,39.2z"/>
	<path class="st0" d="M2559.2,0.7c0.2,0,0.4,0,0.6,0C2559.6,0.8,2559.4,0.8,2559.2,0.7z"/>
	<path class="st0" d="M2564.6,1.2c0.2,0,0.4,0,0.6,0.1C2565,1.2,2564.8,1.2,2564.6,1.2z"/>
	<path class="st0" d="M2296.5,107.3c0.5-0.4,1.1-0.9,1.6-1.3C2297.5,106.4,2297,106.8,2296.5,107.3z"/>
	<path class="st0" d="M2548.4,0.3c0.3,0,0.6,0,0.9,0C2549.1,0.3,2548.8,0.3,2548.4,0.3z"/>
	<path class="st0" d="M2595.9,6.2c0.1,0,0.2,0.1,0.4,0.1C2596.2,6.3,2596.1,6.3,2595.9,6.2z"/>
	<path class="st0" d="M2570,1.7c0.1,0,0.1,0,0.2,0C2570.1,1.7,2570.1,1.7,2570,1.7z"/>
	<path class="st0" d="M2601.3,7.6c0,0,0.1,0,0.1,0C2601.4,7.6,2601.3,7.6,2601.3,7.6z"/>
	<path class="st0" d="M2585.5,4c0.2,0,0.3,0.1,0.5,0.1C2585.9,4.1,2585.7,4.1,2585.5,4z"/>
	<path class="st0" d="M2575.1,2.4c0.2,0,0.4,0.1,0.6,0.1C2575.5,2.4,2575.3,2.4,2575.1,2.4z"/>
	<path class="st0" d="M2554.1,0.5c0.2,0,0.4,0,0.5,0C2554.5,0.5,2554.3,0.5,2554.1,0.5z"/>
	<path class="st0" d="M2013.2,1956c-4.4,2.5-9,5.2-13.7,8.1C2004.2,1961.3,2008.8,1958.6,2013.2,1956z"/>
	<path class="st0" d="M1988,1971.1c-0.3,0.2-0.5,0.3-0.8,0.5C1987.5,1971.4,1987.8,1971.3,1988,1971.1z"/>
	<path class="st0" d="M2270.6,129c0.4-0.3,0.8-0.7,1.2-1C2271.4,128.3,2271,128.7,2270.6,129z"/>
	<path class="st0" d="M1994.5,1967.2c-0.3,0.2-0.7,0.4-1,0.6C1993.8,1967.6,1994.1,1967.4,1994.5,1967.2z"/>
	<path class="st0" d="M2685.6,49.1c0.2,0.2,0.5,0.4,0.7,0.5C2686.1,49.4,2685.8,49.3,2685.6,49.1z"/>
	<path class="st0" d="M2288.3,113.9c0.3-0.3,0.7-0.6,1-0.8C2289,113.4,2288.7,113.6,2288.3,113.9z"/>
	<path class="st0" d="M2292.4,110.6c0.5-0.4,1-0.8,1.5-1.2C2293.4,109.8,2292.9,110.2,2292.4,110.6z"/>
	<path class="st0" d="M2283.3,118.1c0.3-0.3,0.7-0.6,1-0.9C2284,117.6,2283.6,117.9,2283.3,118.1z"/>
	<path class="st0" d="M2278.8,121.9c0.5-0.4,0.9-0.8,1.4-1.2C2279.8,121.1,2279.3,121.5,2278.8,121.9z"/>
	<path class="st0" d="M2274.7,125.5c0.5-0.4,0.9-0.8,1.4-1.2C2275.6,124.7,2275.1,125.1,2274.7,125.5z"/>
	<path class="st0" d="M2695.2,56.6c0.2,0.1,0.3,0.3,0.5,0.4C2695.6,56.9,2695.4,56.8,2695.2,56.6z"/>
	<path class="st0" d="M2699.9,60.5c0.3,0.3,0.6,0.5,1,0.8C2700.6,61.1,2700.3,60.8,2699.9,60.5z"/>
	<path class="st0" d="M2690.5,52.9c0.3,0.2,0.6,0.4,0.9,0.7C2691.1,53.3,2690.8,53.1,2690.5,52.9z"/>
	<path class="st0" d="M2826.5,283.2c0.1,0.7,0.3,1.4,0.4,2.1C2826.8,284.6,2826.6,283.9,2826.5,283.2z"/>
	<path class="st0" d="M2836.4,373.4c0.2,7,0.3,14,0.3,21.1C2836.7,387.4,2836.6,380.4,2836.4,373.4z"/>
	<path class="st0" d="M2831.3,312c0.6,4.1,1.1,8.2,1.6,12.3C2832.4,320.2,2831.9,316.1,2831.3,312z"/>
	<path class="st0" d="M2421.1,1436L2421.1,1436c-89.7,28.8-185.6,72.5-265.7,113C2235.5,1508.5,2331.4,1464.8,2421.1,1436z"/>
	<path class="st0" d="M2073.8,1925.3L2073.8,1925.3c0,0-23.1,9.4-57.8,29.2C2050.7,1934.7,2073.8,1925.3,2073.8,1925.3z"/>
	<path class="st0" d="M2835.7,357.8c0,0.4,0,0.7,0.1,1.1C2835.8,358.6,2835.7,358.2,2835.7,357.8z"/>
	<path class="st0" d="M2666.3,35.9c0.2,0.2,0.5,0.3,0.7,0.5C2666.8,36.2,2666.5,36,2666.3,35.9z"/>
	<polygon class="st0" points="2705.3,64.3 2705.3,64.3 2705.1,65 2705.1,65 2705.1,65 	"/>
	<path class="st0" d="M2534.4,0.4c0.5,0,1,0,1.5-0.1C2535.4,0.4,2534.9,0.4,2534.4,0.4z"/>
	<path class="st0" d="M2538.6,0.3c0.4,0,0.8,0,1.2,0C2539.4,0.3,2539,0.3,2538.6,0.3z"/>
	<path class="st0" d="M2530.5,0.6c0.5,0,1.1-0.1,1.6-0.1C2531.6,0.5,2531,0.6,2530.5,0.6z"/>
	<path class="st0" d="M2543.9,0.2c-0.1,0-0.2,0-0.2,0c0,0-0.1,0-0.1,0C2543.7,0.2,2543.8,0.2,2543.9,0.2z"/>
	<path class="st0" d="M2526.6,0.8c0.5,0,1-0.1,1.6-0.1C2527.6,0.8,2527.1,0.8,2526.6,0.8z"/>
	<path class="st0" d="M1623.7,2662.2C1623.7,2662.2,1623.7,2662.2,1623.7,2662.2c0.2,2,0.3,4.1,0.5,6.1
		c10.1,120.9,27.6,227.4,49.9,297.2c-22.3-69.8-39.8-176.3-49.9-297.2C1624,2666.3,1623.9,2664.2,1623.7,2662.2z"/>
	<path class="st0" d="M1706,2989.5L1706,2989.5c-35.3-111.5-53.1-252.4-52.8-414.2C1652.9,2737.1,1670.7,2878,1706,2989.5z"/>
	<path class="st0" d="M1970.1,1650.7c0,0,78.8-48,185.1-101.7C2048.8,1602.7,1970.1,1650.7,1970.1,1650.7L1970.1,1650.7z"/>
	<path class="st0" d="M2649.5,211.9C2649.5,211.9,2649.5,211.9,2649.5,211.9c-249,224.8-585.8,952.2-686.3,1221.3
		C1850.3,1734.8,1770.4,2018,1722,2289c0,0,0,0,0,0c48.4-271,128.3-554.2,241.2-855.8C2063.7,1164.1,2400.5,436.7,2649.5,211.9z"/>
	<path class="st0" d="M2517.3,1.7c0.6-0.1,1.2-0.1,1.9-0.2C2518.5,1.5,2517.9,1.6,2517.3,1.7z"/>
	<path class="st0" d="M2513.3,2.1c0.7-0.1,1.3-0.2,2-0.2C2514.7,1.9,2514,2,2513.3,2.1z"/>
	<path class="st0" d="M2521.5,1.2c0.7-0.1,1.3-0.1,2-0.2C2522.8,1.1,2522.1,1.2,2521.5,1.2z"/>
	<path class="st0" d="M1501,1986.9c-0.9-3-2-6.8-3.3-11.2c-392.6,24.4-902.5,141.7-1247.7,271.4V362c0-75.7,61.5-137.2,137.2-137.2
		h1721.2c2.5-3,5-6,7.6-8.9c12.1-14.2,24.4-28,36.5-41.1H387.2C284,174.8,200,258.8,200,362v1957.7
		c354.3-138.2,870.7-269,1311.2-294c-1.7-7.1-3.3-13.7-4.8-19.9C1504.5,1999.2,1502.7,1992.9,1501,1986.9z"/>
	<path class="st0" d="M2187.2,210.9c-3.8,4.1-7.5,8.2-11.2,12.4C2179.7,219.1,2183.4,215,2187.2,210.9z"/>
	<path class="st0" d="M2154,248.4c2.5-3,5.1-5.9,7.6-8.9C2159.1,242.4,2156.5,245.4,2154,248.4C2154,248.4,2154,248.4,2154,248.4z"
		/>
	<path class="st0" d="M2175.9,223.3c-2.6,2.9-5.3,5.9-7.9,8.9C2170.6,229.2,2173.3,226.2,2175.9,223.3z"/>
	<path d="M1621,2624.8c0.8,12.5,1.7,24.9,2.7,37.4c0,0,0,0,0,0c0,0,0,0,0,0C1622.7,2649.7,1621.8,2637.2,1621,2624.8z"/>
	<path d="M1615.9,2367.7c-0.6,24.6-0.9,49.1-0.9,73.7C1615,2416.8,1615.2,2392.3,1615.9,2367.7z"/>
	<path d="M1615,2297.3c-7-46-14.9-91.9-23.7-137.6C1600.1,2205.4,1608,2251.3,1615,2297.3l2.3,28.3c0,0,0,0,0,0L1615,2297.3z"/>
	<path d="M1615.9,2367.7c0.3-13.3,0.8-26.6,1.3-39.9C1616.7,2341.1,1616.2,2354.4,1615.9,2367.7z"/>
	<path d="M1567.2,2326.6l-1.9-23.5c-13.6-89.8-31.1-180-52-268.4c-0.7-3.1-1.5-6.1-2.2-9.1c-440.4,25-956.9,155.9-1311.2,294V362
		c0-103.2,84-187.2,187.2-187.2h1765.3c3.1-3.3,6.1-6.6,9.2-9.8l0.7-0.8l0.8-0.7l25.2-24.5l6.5-6.4c-343.6,0-1807.6,0-1807.6,0
		c-126.1,0-228.5,103.3-228.5,228.5c106.4,2653-531.7,2285.2,1414.8,2300.6C1564.9,2550.6,1562.8,2437.9,1567.2,2326.6z"/>
	<path d="M1505.2,1850.4c14.9,28.3,29.7,73.7,43.1,119.9C1534.8,1924.1,1520,1878.8,1505.2,1850.4z"/>
	<path d="M1718,1034.8c-1.9,5.2-3.8,10.4-5.7,15.7C1714.2,1045.2,1716.1,1040,1718,1034.8z"/>
	<path d="M1701.2,1082.1c-1.9,5.4-3.7,10.8-5.6,16.2C1697.4,1092.9,1699.3,1087.5,1701.2,1082.1z"/>
	<path d="M1707.9,1062.8c-0.8,2.3-1.6,4.5-2.4,6.8C1706.3,1067.4,1707.1,1065.1,1707.9,1062.8z"/>
	<path d="M1807.7,815.8c-2.9,6.4-5.8,12.8-8.6,19.1C1802,828.6,1804.8,822.2,1807.7,815.8z"/>
	<path d="M1855,716.3c-2.3,4.7-4.7,9.4-7,14.1C1850.3,725.7,1852.7,721,1855,716.3z"/>
	<path d="M1684.5,1622.5c-1.3-3.4-2.7-6.7-4.1-10.1c-17.4-39.8-64-124.3-85.4-160.8c-9,26.2-17.7,52.6-26.1,79
		c8.4-26.4,17.1-52.7,26.1-79c21.4,36.5,68,121,85.4,160.8C1681.8,1615.8,1683.2,1619.1,1684.5,1622.5l6.4,18.3
		c9.6,27.5,11.9,36.6,11.9,36.6l0,0c0,0-2.3-9.1-11.9-36.6L1684.5,1622.5z"/>
	<path d="M1866.7,693c-2.4,4.7-4.7,9.3-7.1,14C1862,702.3,1864.3,697.7,1866.7,693z"/>
	<path d="M2154,248.4c-101,118.2-197.3,269.3-280.9,432.2C1956.7,517.6,2053,366.5,2154,248.4C2154,248.4,2154,248.4,2154,248.4
		S2154,248.4,2154,248.4z"/>
	<path d="M1823.9,780.7c-2,4.3-4,8.6-6,13C1819.9,789.4,1821.9,785.1,1823.9,780.7z"/>
	<path d="M1742.6,969.9c-3.8,9.7-7.5,19.3-11.2,29C1735.1,989.2,1738.8,979.5,1742.6,969.9z"/>
	<path d="M1616,1392.8c-0.3-0.8-0.7-1.5-1-2.3c18-88.4,43.9-183,76.3-279.6c-32.4,96.6-58.3,191.1-76.3,279.6
		C1615.3,1391.3,1615.7,1392,1616,1392.8z"/>
	<path d="M1627.9,1419.9c2.2,5.1,4.3,10.2,6.4,15.4C1632.2,1430.1,1630.1,1425,1627.9,1419.9z"/>
	<path d="M1689.8,1617.8l-7.2-32.7c-11.7-48.2-26.8-95.5-45-141.6c18.2,46.1,33.3,93.4,45,141.6L1689.8,1617.8z"/>
	<path d="M1453.1,1776.6c5.2-33.9,15-77.4,29.2-129.3l11.8-43.3l-0.1-0.1l0.8-2.7l19.3-70.7l1.5,2.7c10.3-32.8,21-65.5,32.1-97.8
		l17.7-51.8l0.6-3.1c38.3-188.4,112.7-406.6,209.6-614.4c49-105.3,102.4-205.1,158.7-296.7c56.7-92.4,115.3-174.6,174.2-244.6H387.2
		C311.5,224.8,250,286.3,250,362v1885.1c345.2-129.7,855.2-247,1247.7-271.4c-8.2-27.9-24.4-80.4-38.9-105.9
		C1447.6,1850.3,1445.9,1823.2,1453.1,1776.6z"/>
	<path d="M1841.2,744.4c-4.6,9.6-9.2,19.2-13.8,28.8C1832,763.6,1836.6,754,1841.2,744.4z"/>
	<path d="M1731.4,998.8c-2.4,6.4-4.9,12.9-7.3,19.3C1726.6,1011.7,1729,1005.3,1731.4,998.8z"/>
	<path d="M2539.8,0.3c-0.4,0-0.8,0-1.2,0c-0.9,0-1.7,0-2.6,0.1c-0.5,0-1,0-1.5,0.1c-0.8,0-1.5,0.1-2.3,0.1c-0.5,0-1.1,0.1-1.6,0.1
		c-0.8,0-1.5,0.1-2.3,0.1c-0.5,0-1,0.1-1.6,0.1c-1.1,0.1-2.1,0.2-3.2,0.2c-0.7,0.1-1.3,0.1-2,0.2c-0.8,0.1-1.6,0.1-2.3,0.2
		c-0.6,0.1-1.2,0.1-1.9,0.2c-0.7,0.1-1.3,0.1-2,0.2c-0.7,0.1-1.3,0.2-2,0.2c-0.6,0.1-1.2,0.2-1.8,0.2c-0.7,0.1-1.4,0.2-2,0.3
		c-0.6,0.1-1.2,0.2-1.7,0.2c-1.5,0.2-3.1,0.5-4.6,0.7c-0.3,0-0.6,0.1-0.9,0.1c-0.8,0.1-1.5,0.3-2.3,0.4c-0.5,0.1-1,0.2-1.5,0.3
		c-0.8,0.1-1.5,0.3-2.3,0.4c-0.5,0.1-1,0.2-1.5,0.3c-0.8,0.2-1.6,0.3-2.4,0.5c-0.4,0.1-0.9,0.2-1.3,0.3c-0.8,0.2-1.7,0.3-2.5,0.5
		c-0.2,0-0.3,0.1-0.5,0.1c-2,0.4-4,0.9-6,1.4c-0.2,0.1-0.4,0.1-0.6,0.1c-0.9,0.2-1.8,0.4-2.7,0.7c-0.4,0.1-0.8,0.2-1.1,0.3
		c-0.9,0.2-1.8,0.5-2.6,0.7c-0.4,0.1-0.7,0.2-1.1,0.3c-0.9,0.2-1.8,0.5-2.7,0.7c-0.2,0.1-0.5,0.1-0.7,0.2c-3.2,0.9-6.3,1.8-9.5,2.8
		c-0.2,0.1-0.4,0.1-0.6,0.2c-1,0.3-1.9,0.6-2.9,0.9c-0.3,0.1-0.6,0.2-0.9,0.3c-1,0.3-1.9,0.6-2.9,1c-0.3,0.1-0.5,0.2-0.8,0.3
		c-4.4,1.5-8.8,3.1-13.2,4.8c-0.2,0.1-0.4,0.2-0.7,0.3c-1,0.4-2,0.8-3,1.2c-0.3,0.1-0.5,0.2-0.8,0.3c-1,0.4-2,0.8-3,1.2
		c-0.1,0.1-0.3,0.1-0.4,0.2c-3.4,1.4-6.8,2.8-10.2,4.4c-0.1,0-0.1,0.1-0.2,0.1c-1,0.5-2.1,0.9-3.1,1.4c-0.2,0.1-0.5,0.2-0.7,0.3
		c-1,0.5-2,0.9-3,1.4c-0.2,0.1-0.5,0.2-0.7,0.3c-4.4,2.1-8.9,4.3-13.4,6.5c-0.2,0.1-0.5,0.2-0.7,0.3c-1,0.5-2,1-2.9,1.5
		c-0.3,0.2-0.6,0.3-0.9,0.5c-1,0.5-2,1-2.9,1.6c-0.2,0.1-0.5,0.2-0.7,0.4c-3.3,1.7-6.5,3.5-9.8,5.4c-0.2,0.1-0.4,0.2-0.5,0.3
		c-1,0.5-1.9,1.1-2.9,1.6c-0.4,0.2-0.7,0.4-1.1,0.6c-0.9,0.5-1.8,1.1-2.7,1.6c-0.4,0.2-0.7,0.4-1.1,0.7c-0.9,0.5-1.9,1.1-2.8,1.6
		c-0.2,0.1-0.5,0.3-0.7,0.4c-3.1,1.9-6.2,3.7-9.3,5.7c-0.4,0.3-0.8,0.5-1.3,0.8c-0.8,0.5-1.7,1.1-2.5,1.6c-0.5,0.3-1,0.6-1.4,0.9
		c-0.8,0.5-1.6,1.1-2.5,1.6c-0.5,0.3-1,0.6-1.5,0.9c-0.8,0.5-1.7,1.1-2.5,1.6c-0.3,0.2-0.6,0.4-0.9,0.6c-1.7,1.1-3.4,2.3-5.1,3.4
		c-0.5,0.4-1,0.7-1.6,1.1c-0.8,0.5-1.5,1-2.3,1.5c-0.6,0.4-1.2,0.8-1.8,1.2c-0.7,0.5-1.5,1-2.2,1.5c-0.6,0.4-1.2,0.9-1.9,1.3
		c-0.7,0.5-1.4,1-2.1,1.5c-0.7,0.5-1.3,1-2,1.4c-0.8,0.6-1.7,1.2-2.5,1.8c-1.1,0.8-2.1,1.5-3.2,2.3c-0.6,0.5-1.2,0.9-1.9,1.4
		c-0.7,0.5-1.5,1.1-2.2,1.6c-0.6,0.5-1.3,0.9-1.9,1.4c-0.7,0.5-1.5,1.1-2.2,1.6c-0.6,0.5-1.2,0.9-1.9,1.4c-0.8,0.6-1.6,1.2-2.3,1.8
		c-0.6,0.4-1.1,0.9-1.7,1.3c-1.2,0.9-2.4,1.8-3.5,2.7c-0.4,0.3-0.9,0.7-1.3,1c-1,0.8-2,1.6-3.1,2.4c-0.5,0.4-1,0.8-1.6,1.2
		c-0.8,0.7-1.7,1.3-2.5,2c-0.5,0.4-1.1,0.9-1.6,1.3c-0.9,0.7-1.7,1.4-2.6,2.1c-0.5,0.4-1,0.8-1.5,1.2c-1,0.8-2,1.7-3,2.5
		c-0.3,0.3-0.7,0.6-1,0.8c-1.3,1.1-2.7,2.2-4,3.4c-0.3,0.3-0.7,0.6-1,0.9c-1,0.9-2,1.7-3,2.6c-0.5,0.4-0.9,0.8-1.4,1.2
		c-0.9,0.8-1.8,1.6-2.8,2.4c-0.5,0.4-0.9,0.8-1.4,1.2c-1,0.8-1.9,1.7-2.9,2.5c-0.4,0.3-0.8,0.7-1.2,1c-1.4,1.2-2.7,2.4-4.1,3.6
		l-1.6,1.5l-41.8,40.7l-25.2,24.5c-3.6,3.8-7.2,7.7-10.8,11.6c-3.8,4.1-7.5,8.2-11.2,12.4c-2.6,2.9-5.3,5.9-7.9,8.9
		c-2.1,2.4-4.3,4.9-6.4,7.3c-2.5,2.9-5.1,5.9-7.6,8.9c-101,118.2-197.3,269.3-280.9,432.2c-2.1,4.1-4.2,8.3-6.4,12.5
		c-2.4,4.7-4.7,9.3-7.1,14c-1.6,3.1-3.1,6.2-4.7,9.3c-2.3,4.7-4.7,9.4-7,14.1c-2.3,4.7-4.6,9.3-6.8,14c-4.6,9.6-9.2,19.2-13.8,28.8
		c-1.2,2.5-2.4,5-3.5,7.5c-2,4.3-4,8.6-6,13c-3.4,7.4-6.8,14.7-10.1,22.1c-2.9,6.4-5.8,12.8-8.6,19.1c-5.7,12.8-11.3,25.6-16.8,38.4
		c-2.8,6.4-5.5,12.8-8.2,19.3c-1.4,3.2-2.7,6.4-4.1,9.6c-2.7,6.4-5.4,12.9-8,19.3c-1.3,3.2-2.6,6.4-3.9,9.7
		c-2.6,6.4-5.2,12.9-7.8,19.3c-2.6,6.4-5.1,12.9-7.6,19.3c-3.8,9.7-7.5,19.3-11.2,29c-2.4,6.4-4.9,12.9-7.3,19.3
		c-2.1,5.6-4.1,11.1-6.2,16.7c-1.9,5.2-3.8,10.4-5.7,15.7c-1.5,4.1-3,8.2-4.4,12.4c-0.8,2.3-1.6,4.5-2.4,6.8
		c-1.5,4.2-2.9,8.3-4.4,12.5c-1.9,5.4-3.7,10.8-5.6,16.2c-1.4,4.2-2.9,8.4-4.3,12.7c-32.4,96.6-58.3,191.1-76.3,279.6
		c0.4,0.8,0.7,1.5,1,2.3c4.1,9,8,18,11.9,27.1c2.2,5.1,4.3,10.2,6.4,15.4c1.1,2.8,2.2,5.5,3.3,8.3c18.2,46.1,33.3,93.4,45,141.6
		l7.2,32.7l2.9,13l10.1,46.6l0,0l0,0c0,0-2.3-9.1-11.9-36.6l-6.4-18.3c-1.3-3.4-2.7-6.7-4.1-10.1c-17.4-39.8-64-124.3-85.4-160.8
		c-9,26.2-17.7,52.6-26.1,79c-7.2,22.5-14.2,45.1-21,67.7c60.3,110.6,96.9,299.7,96.9,299.7s-0.1-0.3-0.3-1
		c-0.2-0.5-0.4-1.3-0.7-2.3c-0.1-0.3-0.2-0.5-0.2-0.8c-2-6.5-6.7-21.4-17.1-50.7c-13.7-37.9-80.4-155.4-96-182.8
		c-27.4,100.5-37.9,168.1-28.3,184.6c1,1.7,2,3.5,3,5.4c14.9,28.3,29.7,73.7,43.1,119.9c0.3,0.9,0.5,1.8,0.8,2.7
		c1.9,6.7,3.8,13.3,5.7,19.9c2.5,10.1,4.9,20.1,7.3,30.2c8,34,15.5,68.1,22.5,102.3c2.3,11.4,4.6,22.8,6.8,34.2
		c8.8,45.7,16.7,91.6,23.7,137.6l2.3,28.3c0,0,0,0,0,0v0c0,0.7-0.1,1.5-0.1,2.2c-0.5,13.3-1,26.6-1.3,39.9
		c-0.6,24.6-0.9,49.1-0.9,73.7c0,61.2,2,122.3,6.1,183.4c0.8,12.5,1.7,24.9,2.7,37.4c0.2,2,0.3,4.1,0.5,6.1
		c10.1,120.9,27.6,227.4,49.9,297.2c4.1,12.8,8.3,24.3,12.7,34.5l19.2-10.5c-35.3-111.5-53.1-252.4-52.8-414.2
		c0.1-26.5,0.6-53.5,1.6-81.1c11.4-299.3,80-660.2,207.4-1036.3c216.1-572.5,514-1028.5,787.3-1246c0,0,0,0,0,0c0,0,0,0,0,0
		c-249,224.8-585.8,952.2-686.3,1221.3C1850.3,1734.8,1770.4,2018,1722,2289c52.6-160.5,179.2-263.4,265.3-317.4
		c0.3-0.2,0.5-0.3,0.8-0.5c1.8-1.1,3.6-2.3,5.4-3.4c0.3-0.2,0.7-0.4,1-0.6c1.7-1,3.4-2.1,5-3.1c4.7-2.8,9.3-5.5,13.7-8.1
		c0.9-0.5,1.9-1.1,2.8-1.6c34.7-19.7,57.8-29.2,57.8-29.2c0,0,132.5-162.7,286-395.2l-294.7,78.6l-95,42l0,0l0,0
		c0,0,78.7-48,185.1-101.7c0.1,0,0.1-0.1,0.2-0.1c80.2-40.5,176-84.1,265.7-113c148.8-234.3,304.6-519.9,375.8-779.5
		c3.7-13.7,7.3-27.3,10.5-40.8c18.7-77.2,29.3-151.6,29.3-221.3c0-7.1-0.1-14.1-0.3-21.1c-0.2-4.9-0.4-9.7-0.6-14.5
		c0-0.4,0-0.7-0.1-1.1c-0.6-11.3-1.6-22.5-2.8-33.5c-0.5-4.1-1-8.2-1.6-12.3c-1.2-9-2.7-18-4.4-26.8c-0.1-0.7-0.3-1.4-0.4-2.1
		c-16.8-85.5-55.2-160.1-121.2-218.9l-0.2,0.7c0,0,0,0,0,0c-1.4-1.2-2.8-2.5-4.2-3.7c-0.3-0.3-0.6-0.5-1-0.8
		c-1.4-1.2-2.8-2.3-4.2-3.5c-0.2-0.1-0.3-0.3-0.5-0.4c-1.3-1-2.6-2.1-3.9-3.1c-0.3-0.2-0.6-0.4-0.9-0.7c-1.4-1.1-2.8-2.2-4.2-3.2
		c-0.2-0.2-0.5-0.4-0.7-0.5c-1.3-1-2.6-1.9-3.9-2.9c-0.2-0.1-0.4-0.3-0.6-0.4c-1.4-1-2.9-2-4.3-3c-0.3-0.2-0.5-0.4-0.8-0.5
		c-1.4-1-2.9-2-4.3-2.9c0,0-0.1,0-0.1-0.1c-1.5-1-3-1.9-4.5-2.9c-0.2-0.2-0.5-0.3-0.7-0.5c-3-1.9-6.1-3.7-9.1-5.4
		c-0.2-0.1-0.4-0.2-0.6-0.3c-1.5-0.9-3.1-1.7-4.6-2.5c-0.1,0-0.1-0.1-0.2-0.1c-1.5-0.8-3.1-1.6-4.6-2.4c-0.1-0.1-0.3-0.1-0.4-0.2
		c-1.6-0.8-3.1-1.6-4.7-2.3c-0.1-0.1-0.2-0.1-0.4-0.2c-3.2-1.5-6.4-3-9.6-4.3c-0.1-0.1-0.3-0.1-0.4-0.2c-3.2-1.3-6.4-2.6-9.7-3.8
		c-0.1-0.1-0.3-0.1-0.4-0.2c-3.3-1.2-6.5-2.3-9.8-3.3c-0.1,0-0.2-0.1-0.3-0.1c-1.7-0.5-3.3-1-5-1.5c0,0-0.1,0-0.1,0
		c-1.7-0.5-3.3-0.9-5-1.4c0,0-0.1,0-0.1,0c-1.7-0.4-3.3-0.8-5-1.2c-0.1,0-0.2-0.1-0.4-0.1c-3.3-0.8-6.6-1.5-9.9-2.1
		c-0.2,0-0.3-0.1-0.5-0.1c-3.3-0.6-6.6-1.1-9.8-1.6c-0.2,0-0.4-0.1-0.6-0.1c-1.6-0.2-3.3-0.4-4.9-0.6c-0.1,0-0.1,0-0.2,0
		c-1.6-0.2-3.2-0.3-4.8-0.5c-0.2,0-0.4,0-0.6-0.1c-1.6-0.1-3.2-0.3-4.8-0.4c-0.2,0-0.4,0-0.6,0c-1.5-0.1-3-0.2-4.5-0.3
		c-0.2,0-0.4,0-0.5,0c-1.6-0.1-3.2-0.1-4.7-0.2c-0.3,0-0.6,0-0.9,0c-1.5,0-3,0-4.5-0.1c-0.1,0-0.2,0-0.3,0
		C2542.3,0.2,2541.1,0.2,2539.8,0.3z"/>
	<path class="st1" d="M2266.9,130.9c-0.3,0.6-0.7,1.1-1,1.7c0.3,0,0.5,0,0.5,0L2266.9,130.9z"/>
	<path class="st1" d="M2700.9,61.3c1.4,1.2,2.8,2.4,4.2,3.7C2703.7,63.8,2702.3,62.5,2700.9,61.3z"/>
	<path class="st1" d="M2826.9,285.3c1.7,8.8,3.2,17.7,4.4,26.8C2830.1,303,2828.6,294.1,2826.9,285.3z"/>
	<path class="st1" d="M2187.2,210.9c3.6-3.9,7.2-7.8,10.8-11.6l25.2-24.5l-25.2,24.5C2194.4,203.1,2190.8,207,2187.2,210.9z"/>
	<path class="st1" d="M2832.9,324.4c1.3,11,2.2,22.2,2.8,33.5C2835.1,346.5,2834.1,335.4,2832.9,324.4z"/>
	<path class="st1" d="M2016,1954.5c-0.9,0.5-1.8,1-2.8,1.6C2014.1,1955.5,2015.1,1955,2016,1954.5z"/>
	<path class="st1" d="M2511.5,2.3c0.6-0.1,1.2-0.2,1.8-0.2C2512.7,2.2,2512.1,2.3,2511.5,2.3z"/>
	<polygon class="st1" points="1702.8,1677.4 1702.8,1677.4 1692.7,1630.8 1689.8,1617.8 1692.7,1630.8 	"/>
	<path class="st1" d="M1993.5,1967.8c-1.8,1.1-3.6,2.2-5.4,3.4C1989.9,1970,1991.7,1968.9,1993.5,1967.8z"/>
	<path class="st1" d="M1999.5,1964.1c-1.7,1-3.3,2-5,3.1C1996.2,1966.1,1997.8,1965.1,1999.5,1964.1z"/>
	<path class="st1" d="M2835.8,358.9c0.3,4.8,0.5,9.7,0.6,14.5C2836.2,368.6,2836,363.7,2835.8,358.9z"/>
	<path class="st1" d="M2836.7,394.5c0,69.6-10.6,144.1-29.3,221.3C2826.1,538.6,2836.7,464.1,2836.7,394.5z"/>
	<path class="st1" d="M2155.4,1549c-0.1,0-0.1,0.1-0.2,0.1C2155.3,1549,2155.3,1549,2155.4,1549z"/>
	<path class="st1" d="M2421.1,1436c148.8-234.3,304.6-519.9,375.8-779.5C2725.7,916.1,2569.9,1201.7,2421.1,1436
		C2421.1,1436,2421.1,1436,2421.1,1436z"/>
	<path class="st1" d="M2807.5,615.8c-3.3,13.5-6.8,27.1-10.5,40.8C2800.7,642.9,2804.2,629.3,2807.5,615.8z"/>
	<path class="st1" d="M2695.8,57c1.4,1.1,2.8,2.3,4.2,3.5C2698.5,59.3,2697.2,58.2,2695.8,57z"/>
	<path class="st1" d="M2601.4,7.6c1.7,0.4,3.3,0.9,5,1.4C2604.7,8.5,2603.1,8,2601.4,7.6z"/>
	<path class="st1" d="M2826.5,283.2c-16.8-85.5-55.2-160.1-121.2-218.9v0C2771.3,123,2809.7,197.7,2826.5,283.2z"/>
	<path class="st1" d="M2586,4.1c3.3,0.6,6.6,1.3,9.9,2.1C2592.6,5.5,2589.3,4.8,2586,4.1z"/>
	<path class="st1" d="M2596.3,6.3c1.7,0.4,3.3,0.8,5,1.2C2599.6,7.1,2598,6.7,2596.3,6.3z"/>
	<path class="st1" d="M2606.5,9c1.7,0.5,3.3,1,5,1.5C2609.8,10,2608.1,9.5,2606.5,9z"/>
	<path class="st1" d="M2065.1,1608.7l294.7-78.6c-153.5,232.5-286,395.2-286,395.2l0,0c0,0,132.5-162.7,286-395.2L2065.1,1608.7
		l-95,42l0,0L2065.1,1608.7z"/>
	<path class="st1" d="M2622,14.1c3.2,1.2,6.5,2.5,9.7,3.8C2628.4,16.5,2625.2,15.3,2622,14.1z"/>
	<path class="st1" d="M2611.8,10.6c3.3,1,6.5,2.1,9.8,3.3C2618.3,12.7,2615,11.6,2611.8,10.6z"/>
	<path class="st1" d="M2554.7,0.5c1.5,0.1,3,0.2,4.5,0.3C2557.7,0.6,2556.2,0.6,2554.7,0.5z"/>
	<path class="st1" d="M2549.4,0.3c1.6,0,3.2,0.1,4.7,0.2C2552.6,0.4,2551,0.3,2549.4,0.3z"/>
	<path class="st1" d="M2543.9,0.2c1.5,0,3,0,4.5,0.1C2546.9,0.2,2545.4,0.2,2543.9,0.2z"/>
	<path class="st1" d="M2575.7,2.4c3.3,0.5,6.6,1,9.8,1.6C2582.2,3.4,2579,2.9,2575.7,2.4z"/>
	<path class="st1" d="M2570.2,1.7c1.6,0.2,3.3,0.4,4.9,0.6C2573.4,2.1,2571.8,1.9,2570.2,1.7z"/>
	<path class="st1" d="M2559.8,0.8c1.6,0.1,3.2,0.2,4.8,0.4C2563,1,2561.4,0.9,2559.8,0.8z"/>
	<path class="st1" d="M2565.2,1.2c1.6,0.1,3.2,0.3,4.8,0.5C2568.4,1.5,2566.8,1.4,2565.2,1.2z"/>
	<path class="st1" d="M2647.2,25.1c1.5,0.8,3.1,1.6,4.6,2.4C2650.2,26.6,2648.7,25.8,2647.2,25.1z"/>
	<path class="st1" d="M2676.7,42.7c1.4,1,2.9,2,4.3,3C2679.6,44.7,2678.2,43.7,2676.7,42.7z"/>
	<path class="st1" d="M2671.6,39.3c1.4,0.9,2.9,1.9,4.3,2.9C2674.5,41.2,2673.1,40.2,2671.6,39.3z"/>
	<path class="st1" d="M1617.3,2325.6c0,0.7-0.1,1.5-0.1,2.2C1617.2,2327.1,1617.3,2326.3,1617.3,2325.6L1617.3,2325.6z"/>
	<path class="st1" d="M2686.3,49.6c1.4,1.1,2.8,2.1,4.2,3.2C2689.1,51.8,2687.7,50.7,2686.3,49.6z"/>
	<path class="st1" d="M2667,36.3c1.5,0.9,3,1.9,4.5,2.9C2670,38.2,2668.5,37.3,2667,36.3z"/>
	<path class="st1" d="M2681.7,46.2c1.3,0.9,2.6,1.9,3.9,2.9C2684.3,48.1,2683,47.1,2681.7,46.2z"/>
	<path class="st1" d="M2657.2,30.4c3,1.7,6.1,3.5,9.1,5.4C2663.3,34,2660.2,32.2,2657.2,30.4z"/>
	<path class="st1" d="M2642.1,22.5c1.6,0.8,3.1,1.5,4.7,2.3C2645.2,24.1,2643.6,23.3,2642.1,22.5z"/>
	<path class="st1" d="M2632.1,18c3.2,1.4,6.4,2.8,9.6,4.3C2638.5,20.8,2635.3,19.4,2632.1,18z"/>
	<path class="st1" d="M1862.2,1457.9c-127.4,376.1-196,737-207.4,1036.3c-1,27.6-1.6,54.6-1.6,81.1c0.1-26.5,0.6-53.5,1.6-81.1
		C1666.2,2194.9,1734.8,1834,1862.2,1457.9c216.1-572.5,514-1028.5,787.3-1246c0,0,0,0,0,0C2376.2,429.4,2078.3,885.4,1862.2,1457.9
		z"/>
	<path class="st1" d="M2691.4,53.5c1.3,1,2.6,2,3.9,3.1C2694,55.6,2692.7,54.5,2691.4,53.5z"/>
	<path class="st1" d="M1674.1,2965.5c4.1,12.8,8.3,24.3,12.7,34.5l19.2-10.5c0,0,0,0,0,0l-19.2,10.5
		C1682.4,2989.8,1678.2,2978.3,1674.1,2965.5z"/>
	<path class="st1" d="M1722,2289C1722,2289,1722,2289,1722,2289c52.6-160.5,179.2-263.4,265.3-317.4
		C1901.2,2025.6,1774.6,2128.5,1722,2289z"/>
	<path class="st1" d="M2651.9,27.5c1.5,0.8,3.1,1.7,4.6,2.5C2655,29.2,2653.5,28.4,2651.9,27.5z"/>
	<path class="st1" d="M1621,2624.8c-4-61.1-6-122.2-6.1-183.4C1615,2502.6,1617,2563.7,1621,2624.8z"/>
	<path class="st1" d="M2431.5,24.2c0.1-0.1,0.3-0.1,0.4-0.2C2431.8,24.1,2431.7,24.2,2431.5,24.2z"/>
	<path class="st1" d="M2456.2,15.1c0.3-0.1,0.6-0.2,0.9-0.3C2456.8,14.9,2456.5,15,2456.2,15.1z"/>
	<path class="st1" d="M2168,232.2c-2.1,2.4-4.3,4.9-6.4,7.3C2163.8,237.1,2165.9,234.6,2168,232.2z"/>
	<path class="st1" d="M2435,22.9c0.3-0.1,0.5-0.2,0.8-0.3C2435.5,22.6,2435.2,22.8,2435,22.9z"/>
	<path class="st1" d="M2421.1,28.7c0.1,0,0.1-0.1,0.2-0.1C2421.3,28.6,2421.2,28.7,2421.1,28.7z"/>
	<path class="st1" d="M2539.8,0.3c1.3,0,2.6,0,3.8,0C2542.3,0.2,2541.1,0.2,2539.8,0.3z"/>
	<path class="st1" d="M2377.8,50.9c0.4-0.2,0.7-0.4,1.1-0.6C2378.5,50.5,2378.2,50.7,2377.8,50.9z"/>
	<path class="st1" d="M2452.6,16.3c0.3-0.1,0.5-0.2,0.8-0.3C2453.1,16.1,2452.9,16.2,2452.6,16.3z"/>
	<path class="st1" d="M2438.7,21.4c0.2-0.1,0.4-0.2,0.7-0.3C2439.2,21.2,2439,21.3,2438.7,21.4z"/>
	<path class="st1" d="M2417.3,30.4c0.2-0.1,0.5-0.2,0.7-0.3C2417.8,30.2,2417.5,30.3,2417.3,30.4z"/>
	<path class="st1" d="M2392.1,42.9c0.2-0.1,0.5-0.2,0.7-0.4C2392.5,42.7,2392.3,42.8,2392.1,42.9z"/>
	<path class="st1" d="M1848,730.4c-2.3,4.7-4.6,9.3-6.8,14C1843.5,739.8,1845.7,735.1,1848,730.4z"/>
	<path class="st1" d="M2381.7,48.6c0.2-0.1,0.4-0.2,0.5-0.3C2382.1,48.4,2381.9,48.5,2381.7,48.6z"/>
	<path class="st1" d="M2395.7,41c0.3-0.2,0.6-0.3,0.9-0.5C2396.3,40.7,2396,40.9,2395.7,41z"/>
	<path class="st1" d="M2399.6,39c0.2-0.1,0.5-0.2,0.7-0.3C2400,38.8,2399.8,38.9,2399.6,39z"/>
	<path class="st1" d="M1859.7,707c-1.6,3.1-3.1,6.2-4.7,9.3C1856.5,713.2,1858.1,710.1,1859.7,707z"/>
	<path class="st1" d="M2413.6,32.1c0.2-0.1,0.5-0.2,0.7-0.3C2414.1,31.9,2413.8,32,2413.6,32.1z"/>
	<path class="st1" d="M1873.1,680.6c-2.1,4.1-4.2,8.3-6.4,12.5C1868.8,688.8,1870.9,684.7,1873.1,680.6z"/>
	<path class="st1" d="M2270.6,129c-1.4,1.2-2.7,2.4-4.1,3.6l-1.6,1.5l1.6-1.5C2267.9,131.4,2269.2,130.2,2270.6,129z"/>
	<path class="st1" d="M2498.3,4.4c0.5-0.1,1-0.2,1.5-0.3C2499.3,4.2,2498.8,4.3,2498.3,4.4z"/>
	<path class="st1" d="M2519.1,1.5c0.8-0.1,1.6-0.1,2.3-0.2C2520.7,1.3,2519.9,1.4,2519.1,1.5z"/>
	<path class="st1" d="M2494.5,5.1c0.5-0.1,1-0.2,1.5-0.3C2495.5,4.9,2495,5,2494.5,5.1z"/>
	<path class="st1" d="M2490.8,5.8c0.4-0.1,0.9-0.2,1.3-0.3C2491.7,5.6,2491.3,5.7,2490.8,5.8z"/>
	<path class="st1" d="M2502.1,3.7c0.3-0.1,0.6-0.1,0.9-0.1C2502.8,3.6,2502.5,3.7,2502.1,3.7z"/>
	<path class="st1" d="M2507.7,2.9c0.6-0.1,1.2-0.2,1.7-0.2C2508.9,2.7,2508.3,2.8,2507.7,2.9z"/>
	<path class="st1" d="M2523.4,1.1c1.1-0.1,2.1-0.2,3.2-0.2C2525.5,0.9,2524.5,1,2523.4,1.1z"/>
	<path class="st1" d="M2515.3,1.9c0.7-0.1,1.3-0.1,2-0.2C2516.6,1.7,2516,1.8,2515.3,1.9z"/>
	<path class="st1" d="M2473.6,9.9c0.4-0.1,0.7-0.2,1.1-0.3C2474.3,9.7,2474,9.8,2473.6,9.9z"/>
	<path class="st1" d="M2487.8,6.5c0.2,0,0.3-0.1,0.5-0.1C2488.1,6.4,2488,6.4,2487.8,6.5z"/>
	<path class="st1" d="M2532.1,0.5c0.8,0,1.5-0.1,2.3-0.1C2533.6,0.4,2532.9,0.5,2532.1,0.5z"/>
	<path class="st1" d="M2536,0.4c0.9,0,1.7,0,2.6-0.1C2537.7,0.3,2536.8,0.3,2536,0.4z"/>
	<path class="st1" d="M2460,13.9c0.2-0.1,0.4-0.1,0.6-0.2C2460.4,13.8,2460.2,13.8,2460,13.9z"/>
	<path class="st1" d="M2470.2,10.9c0.2-0.1,0.5-0.1,0.7-0.2C2470.6,10.7,2470.4,10.8,2470.2,10.9z"/>
	<path class="st1" d="M2477.4,8.9c0.4-0.1,0.8-0.2,1.1-0.3C2478.1,8.7,2477.7,8.8,2477.4,8.9z"/>
	<path class="st1" d="M2481.2,8c0.2-0.1,0.4-0.1,0.6-0.1C2481.6,7.9,2481.4,7.9,2481.2,8z"/>
	<path class="st1" d="M2528.2,0.7c0.8,0,1.5-0.1,2.3-0.1C2529.7,0.6,2528.9,0.7,2528.2,0.7z"/>
	<path class="st1" d="M1634.3,1435.2c1.1,2.8,2.2,5.5,3.3,8.3C1636.5,1440.7,1635.4,1438,1634.3,1435.2z"/>
	<path class="st1" d="M1695.6,1098.3c-1.4,4.2-2.9,8.4-4.3,12.7C1692.7,1106.7,1694.2,1102.5,1695.6,1098.3z"/>
	<path class="st1" d="M2320.1,89c0.7-0.5,1.5-1.1,2.2-1.6C2321.5,87.9,2320.8,88.5,2320.1,89z"/>
	<path class="st1" d="M2302.2,102.7c1-0.8,2-1.6,3.1-2.4C2304.2,101.1,2303.2,101.9,2302.2,102.7z"/>
	<path class="st1" d="M2298.1,106c0.8-0.7,1.7-1.4,2.5-2C2299.8,104.6,2298.9,105.3,2298.1,106z"/>
	<path class="st1" d="M1616,1392.8c4.1,9,8,18,11.9,27.1C1624.1,1410.8,1620.1,1401.8,1616,1392.8z"/>
	<path class="st1" d="M2316,92.1c0.7-0.5,1.5-1.1,2.2-1.6C2317.4,91,2316.7,91.5,2316,92.1z"/>
	<path class="st1" d="M1705.5,1069.6c-1.5,4.2-2.9,8.3-4.4,12.5C1702.6,1077.9,1704.1,1073.8,1705.5,1069.6z"/>
	<path class="st1" d="M2311.8,95.3c0.8-0.6,1.6-1.2,2.3-1.8C2313.3,94.1,2312.6,94.7,2311.8,95.3z"/>
	<path class="st1" d="M2306.6,99.3c1.2-0.9,2.4-1.8,3.5-2.7C2308.9,97.4,2307.8,98.4,2306.6,99.3z"/>
	<path class="st1" d="M2293.9,109.4c0.9-0.7,1.7-1.4,2.6-2.1C2295.6,108,2294.8,108.7,2293.9,109.4z"/>
	<path class="st1" d="M2276.1,124.3c0.9-0.8,1.8-1.6,2.8-2.4C2277.9,122.7,2277,123.5,2276.1,124.3z"/>
	<path class="st1" d="M1644.5,1897c-0.2-0.5-0.4-1.3-0.7-2.3C1644.2,1895.7,1644.4,1896.5,1644.5,1897z"/>
	<path class="st1" d="M2280.2,120.7c1-0.9,2-1.7,3-2.6C2282.2,119,2281.2,119.9,2280.2,120.7z"/>
	<path class="st1" d="M2271.8,128c1-0.8,1.9-1.7,2.9-2.5C2273.7,126.3,2272.7,127.1,2271.8,128z"/>
	<path class="st1" d="M2284.3,117.3c1.3-1.1,2.7-2.2,4-3.4C2287,115,2285.6,116.1,2284.3,117.3z"/>
	<path class="st1" d="M2289.4,113.1c1-0.8,2-1.7,3-2.5C2291.4,111.4,2290.4,112.2,2289.4,113.1z"/>
	<path class="st1" d="M1568.9,1530.6c-7.2,22.5-14.2,45.1-21,67.7C1554.7,1575.7,1561.7,1553.1,1568.9,1530.6z"/>
	<path class="st1" d="M1530.5,1660.4c-27.4,100.5-37.9,168.1-28.3,184.6c1,1.7,2,3.5,3,5.4c-1-1.9-2-3.7-3-5.4
		C1492.6,1828.5,1503.1,1760.9,1530.5,1660.4c15.6,27.4,82.3,144.9,96,182.8c10.4,29.2,15.1,44.2,17.1,50.7
		c-2-6.5-6.7-21.4-17.1-50.7C1612.8,1805.3,1546.1,1687.8,1530.5,1660.4z"/>
	<path class="st1" d="M2348.7,68.9c0.3-0.2,0.6-0.4,0.9-0.6C2349.2,68.6,2349,68.7,2348.7,68.9z"/>
	<path class="st1" d="M1770,902.3c-2.7,6.4-5.4,12.9-8,19.3C1764.7,915.1,1767.3,908.7,1770,902.3z"/>
	<path class="st1" d="M2356,64.2c0.5-0.3,1-0.6,1.4-0.9C2356.9,63.6,2356.4,63.9,2356,64.2z"/>
	<path class="st1" d="M1782.3,873.4c-2.8,6.4-5.5,12.8-8.2,19.3C1776.8,886.2,1779.5,879.8,1782.3,873.4z"/>
	<path class="st1" d="M2352,66.7c0.5-0.3,1-0.6,1.5-0.9C2353,66.1,2352.5,66.4,2352,66.7z"/>
	<path class="st1" d="M2359.9,61.7c0.4-0.3,0.8-0.5,1.3-0.8C2360.8,61.1,2360.3,61.4,2359.9,61.7z"/>
	<path class="st1" d="M2374,53.1c0.4-0.2,0.7-0.4,1.1-0.7C2374.7,52.7,2374.3,52.9,2374,53.1z"/>
	<path class="st1" d="M1817.9,793.7c-3.4,7.4-6.8,14.7-10.1,22.1C1811.1,808.5,1814.5,801.1,1817.9,793.7z"/>
	<path class="st1" d="M2370.5,55.2c0.2-0.1,0.5-0.3,0.7-0.4C2370.9,54.9,2370.7,55,2370.5,55.2z"/>
	<path class="st1" d="M1827.4,773.2c-1.2,2.5-2.4,5-3.5,7.5C1825.1,778.2,1826.3,775.7,1827.4,773.2z"/>
	<path class="st1" d="M2329.8,81.9c0.7-0.5,1.3-1,2-1.4C2331.2,81,2330.5,81.4,2329.8,81.9z"/>
	<path class="st1" d="M1724.2,1018.1c-2.1,5.6-4.1,11.1-6.2,16.7C1720.1,1029.2,1722.1,1023.7,1724.2,1018.1z"/>
	<path class="st1" d="M2324.1,86c1.1-0.8,2.1-1.6,3.2-2.3C2326.3,84.5,2325.2,85.2,2324.1,86z"/>
	<path class="st1" d="M2334,79c0.6-0.4,1.2-0.9,1.9-1.3C2335.2,78.1,2334.6,78.5,2334,79z"/>
	<path class="st1" d="M2338,76.2c0.6-0.4,1.2-0.8,1.8-1.2C2339.2,75.3,2338.6,75.8,2338,76.2z"/>
	<path class="st1" d="M1758.1,931.2c-2.6,6.4-5.2,12.9-7.8,19.3C1752.8,944.1,1755.4,937.7,1758.1,931.2z"/>
	<path class="st1" d="M2342,73.4c0.5-0.4,1-0.7,1.6-1.1C2343.1,72.7,2342.5,73,2342,73.4z"/>
	<path class="st1" d="M1712.3,1050.5c-1.5,4.1-3,8.2-4.4,12.4C1709.4,1058.7,1710.9,1054.6,1712.3,1050.5z"/>
</g>
</svg>
