<?xml version="1.0" encoding="utf-8"?>
<!-- Generator: Adobe Illustrator 25.2.1, SVG Export Plug-In . SVG Version: 6.00 Build 0)  -->
<svg version="1.1" id="Capa_1" xmlns="http://www.w3.org/2000/svg" xmlns:xlink="http://www.w3.org/1999/xlink" x="0px" y="0px"
	 viewBox="0 0 3000 3000" enable-background="new 0 0 3000 3000" xml:space="preserve">
<path d="M2707-0.3H292.9c-161.8,0-293,131.2-293,293v2414.1c0,161.8,131.2,293,293,293H2707c161.8,0,293-131.2,293-293V292.7
	C2999.9,130.9,2868.8-0.3,2707-0.3z M1740.2,1664.2h-376.3V2736h-298.1V1664.2H691.3v-240.7h1048.8V1664.2z M2712.1,2546
	c-27.8,49.8-65.6,90.1-113.2,121c-47.7,30.9-103.2,53-166.4,66.5c-63.3,13.4-130.1,20.2-200.4,20.2c-72.1,0-140.8-6.1-205.9-18.3
	s-121.5-30.6-169.2-55v-293.3h0c53.2,44.6,111,78.1,173.3,100.4c62.4,22.3,125.3,33.5,188.9,33.5c37.3,0,69.8-3.4,97.7-10.1
	c27.8-6.7,51-16,69.7-28c18.6-11.9,32.6-26,41.7-42.2c9.2-16.2,13.8-33.8,13.8-52.7c0-25.7-7.3-48.6-22-68.7
	c-14.7-20.2-34.7-38.8-60.1-55.9c-25.4-17.1-55.5-33.6-90.3-49.5c-34.8-15.9-72.4-32.1-112.8-48.6c-102.7-42.8-179.3-95-229.7-156.7
	c-50.4-61.7-75.7-136.3-75.7-223.7c0-68.4,13.8-127.3,41.3-176.4c27.5-49.2,65-89.7,112.3-121.5c47.4-31.8,102.3-55.1,164.6-70.1
	s128.4-22.5,198.1-22.5c68.5,0,129.1,4.1,182,12.4c52.9,8.3,101.6,20.9,146.3,38v274.1c-22-15.3-46-28.7-72-40.3
	c-26-11.6-52.7-21.2-80.2-28.9c-27.5-7.6-54.9-13.3-82.1-17c-27.2-3.7-53-5.5-77.5-5.5c-33.6,0-64.2,3.2-91.7,9.6
	c-27.5,6.4-50.7,15.4-69.7,27c-18.9,11.6-33.6,25.5-44,41.7s-15.6,34.4-15.6,54.5c0,22,5.8,41.7,17.4,59.1
	c11.6,17.4,28.1,33.9,49.5,49.5c21.4,15.6,47.4,30.9,77.9,45.8c30.6,15,65.1,30.4,103.6,46.3c52.6,22,99.8,45.4,141.7,70.1
	c41.9,24.8,77.8,52.7,107.7,83.9c30,31.2,52.9,66.8,68.8,106.8c15.9,40,23.8,86.6,23.8,139.8
	C2753.8,2434.6,2739.9,2496.2,2712.1,2546z"/>
</svg>
