<?xml version="1.0" encoding="utf-8"?>
<!-- Generator: Adobe Illustrator 25.2.1, SVG Export Plug-In . SVG Version: 6.00 Build 0)  -->
<svg version="1.1" id="Capa_1" xmlns="http://www.w3.org/2000/svg" xmlns:xlink="http://www.w3.org/1999/xlink" x="0px" y="0px"
	 viewBox="0 0 3000 3000" enable-background="new 0 0 3000 3000" xml:space="preserve">
<path d="M1500.2-0.3c-825,0-1500,675-1500,1500c0,742.5,540,1357.5,1252.5,1485l8.9-7.3c-0.5-0.1-0.9-0.2-1.4-0.2V1919.7h-375v-420
	h375v-330c0-375,240-585,585-585c105,0,225,15,330,30v382.5h-195c-180,0-225,90-225,210v292.5h397.5l-67.5,420h-330v1057.5
	c-4.6,0.8-9.1,1.6-13.7,2.4l6.2,5.1c712.5-127.5,1252.5-742.5,1252.5-1485C3000.2,674.7,2325.2-0.3,1500.2-0.3z"/>
</svg>
