<?xml version="1.0" encoding="utf-8"?>
<!-- Generator: Adobe Illustrator 25.2.1, SVG Export Plug-In . SVG Version: 6.00 Build 0)  -->
<svg version="1.1" id="Capa_1" xmlns="http://www.w3.org/2000/svg" xmlns:xlink="http://www.w3.org/1999/xlink" x="0px" y="0px"
	 viewBox="0 0 3000 3000" enable-background="new 0 0 3000 3000" xml:space="preserve">
<g id="Symbol">
	<g>
		<path d="M517.6,78.7c-98.8,38.4-182.3,89.6-265.9,173.2C168.2,334.8,117,418.9,78.6,517.1c-37.2,95.1-62.2,204.3-69.5,364
			s-9.1,211-9.1,618.3s1.8,458.5,9.1,618.3s32.9,268.9,69.5,364c38.4,98.8,89.6,182.3,173.2,265.9
			c83.5,83.5,167.1,134.8,265.9,173.2c95.1,37.2,204.3,62.2,364,69.5s211,9.1,618.3,9.1s458.5-1.8,618.3-9.1
			c159.8-7.3,268.9-32.9,364-69.5c98.8-38.4,182.3-89.6,265.9-173.2c83.5-83.5,134.8-167.1,173.2-265.9
			c37.2-95.1,62.2-204.3,69.5-364s9.1-211,9.1-618.3s-1.8-458.5-9.1-618.3c-7.3-159.8-32.9-268.9-69.5-364
			c-38.4-98.2-89.6-182.3-172.6-265.2c-83.5-83.5-167.1-134.8-265.9-173.2c-95.1-37.2-204.3-62.2-364-69.5S1907.8,0,1500.5,0
			S1042,1.8,882.2,9.1C721.9,15.9,612.7,41.5,517.6,78.7z M2106,278.7c146.3,6.7,225.6,31.1,278.7,51.8
			c70.1,27.4,120.1,59.8,172.6,112.2s84.8,102.4,112.2,172.6c20.7,53,45.1,132.3,51.8,278.7c7.3,157.9,8.5,205.5,8.5,606.1
			s-1.8,448.2-8.5,606.1c-6.7,146.3-31.1,225.6-51.8,278.7c-27.4,70.1-59.8,120.1-112.2,172.6c-52.4,52.4-102.4,84.8-172.6,112.2
			c-53,20.7-132.3,45.1-278.7,51.8c-157.9,7.3-205.5,8.5-606.1,8.5s-448.2-1.8-606.1-8.5c-146.3-6.7-225.6-31.1-278.7-51.8
			c-70.1-27.4-120.1-59.8-172.6-112.2c-52.4-52.4-84.8-102.4-112.2-172.6c-20.7-53-45.1-132.3-51.8-278.7
			c-7.3-157.9-8.5-205.5-8.5-606.1s1.8-448.2,8.5-606.1c6.7-146.3,31.1-225.6,51.8-278.7c27.4-70.1,59.8-120.1,112.2-172.6
			C495,390.2,545,357.9,615.2,330.5c53-20.7,132.3-45.1,278.7-51.8c157.9-7.3,205.5-8.5,606.1-8.5S1948.1,271.3,2106,278.7z"/>
		<path d="M729.8,1500c0,425.6,345.1,770.1,770.1,770.1S2270,1925,2270,1500s-344.5-770.1-770.1-770.1S729.8,1074.4,729.8,1500z
			 M1999.9,1500c0,276.2-223.8,500-500,500s-500-223.8-500-500s223.8-500,500-500S1999.9,1223.8,1999.9,1500z"/>
		<circle cx="2301.1" cy="699.4" r="179.9"/>
	</g>
</g>
</svg>
