<?xml version="1.0" encoding="utf-8"?>
<!-- Generator: Adobe Illustrator 25.2.1, SVG Export Plug-In . SVG Version: 6.00 Build 0)  -->
<svg version="1.1" id="Capa_1" xmlns="http://www.w3.org/2000/svg" xmlns:xlink="http://www.w3.org/1999/xlink" x="0px" y="0px"
	 viewBox="0 0 3000 3000" enable-background="new 0 0 3000 3000" xml:space="preserve">
<path fill-rule="evenodd" clip-rule="evenodd" d="M2666.6-0.3H333.3C149.2-0.3-0.1,148.9-0.1,333v2333.3
	c0,184.1,149.2,333.3,333.3,333.3h2333.3c184.1,0,333.3-149.2,333.3-333.3V333C2999.9,148.9,2850.7-0.3,2666.6-0.3z M907,2583H459.6
	V1138.6H907V2583z M681.1,949.4c-146.1,0-264.6-119.3-264.6-266.5S535,416.4,681.1,416.4s264.5,119.3,264.5,266.5
	S827.3,949.4,681.1,949.4z M2583.3,2583h-445.2v-758.2c0-207.9-79-324.1-243.5-324.1c-179,0-272.5,120.9-272.5,324.1V2583h-429
	V1138.6h429v194.6c0,0,129-238.7,435.5-238.7c306.4,0,525.7,187.1,525.7,574V2583z"/>
</svg>
