<?xml version="1.0" encoding="utf-8"?>
<!-- Generator: Adobe Illustrator 25.2.1, SVG Export Plug-In . SVG Version: 6.00 Build 0)  -->
<svg version="1.1" id="Capa_1" xmlns="http://www.w3.org/2000/svg" xmlns:xlink="http://www.w3.org/1999/xlink" x="0px" y="0px"
	 viewBox="0 0 3000 3000" enable-background="new 0 0 3000 3000" xml:space="preserve">
<path d="M2692.8,890.4c1.8,26.4,1.8,52.9,1.8,79.6c0,813.3-619.1,1751.2-1751.2,1751.2v-0.5c-334.4,0.5-661.9-95.3-943.4-275.9
	c48.6,5.8,97.5,8.8,146.5,8.9c277.1,0.2,546.4-92.7,764.4-264c-263.4-5-494.3-176.7-575-427.4c92.3,17.8,187.3,14.1,277.9-10.6
	c-287.1-58-493.7-310.3-493.7-603.3v-7.8c85.6,47.7,181.4,74.1,279.3,77C128.9,1036.9,45.5,677.1,208.8,395.8
	c312.5,384.5,773.6,618.3,1268.5,643c-49.6-213.8,18.2-437.8,178.1-588.1c247.9-233,637.8-221.1,870.8,26.7
	c137.8-27.2,270-77.8,390.9-149.4c-45.9,142.5-142.1,263.5-270.6,340.4c122-14.4,241.2-47,353.4-96.9
	C2917.3,695.4,2813.2,803.3,2692.8,890.4L2692.8,890.4z"/>
</svg>
